<svg width="2822" height="1062" xmlns="http://www.w3.org/2000/svg" xmlns:xlink="http://www.w3.org/1999/xlink" xml:space="preserve" overflow="hidden"><defs><clipPath id="clip0"><rect x="1604" y="150" width="2822" height="1062"/></clipPath><clipPath id="clip1"><rect x="1605" y="151" width="2819" height="1059"/></clipPath><clipPath id="clip2"><rect x="1605" y="151" width="2819" height="1059"/></clipPath><clipPath id="clip3"><rect x="1894" y="204" width="2437" height="675"/></clipPath><clipPath id="clip4"><rect x="1894" y="204" width="2437" height="675"/></clipPath><clipPath id="clip5"><rect x="1894" y="204" width="2437" height="675"/></clipPath><clipPath id="clip6"><rect x="1605" y="151" width="2819" height="1059"/></clipPath><clipPath id="clip7"><rect x="1605" y="151" width="2819" height="1059"/></clipPath><clipPath id="clip8"><rect x="1605" y="151" width="2819" height="1059"/></clipPath><clipPath id="clip9"><rect x="1605" y="151" width="2819" height="1059"/></clipPath><clipPath id="clip10"><rect x="1605" y="151" width="2819" height="1059"/></clipPath><clipPath id="clip11"><rect x="1605" y="151" width="2819" height="1059"/></clipPath><clipPath id="clip12"><rect x="1605" y="151" width="2819" height="1059"/></clipPath><clipPath id="clip13"><rect x="1605" y="151" width="2819" height="1059"/></clipPath><clipPath id="clip14"><rect x="1605" y="151" width="2819" height="1059"/></clipPath><clipPath id="clip15"><rect x="1605" y="151" width="2819" height="1059"/></clipPath><clipPath id="clip16"><rect x="1605" y="151" width="2819" height="1059"/></clipPath><clipPath id="clip17"><rect x="1605" y="151" width="2819" height="1059"/></clipPath><clipPath id="clip18"><rect x="1605" y="151" width="2819" height="1059"/></clipPath><clipPath id="clip19"><rect x="1605" y="151" width="2819" height="1059"/></clipPath><clipPath id="clip20"><rect x="1605" y="151" width="2819" height="1059"/></clipPath><clipPath id="clip21"><rect x="1605" y="151" width="2819" height="1059"/></clipPath><clipPath id="clip22"><rect x="1605" y="151" width="2819" height="1059"/></clipPath><clipPath id="clip23"><rect x="1605" y="151" width="2819" height="1059"/></clipPath><clipPath id="clip24"><rect x="1605" y="151" width="2819" height="1059"/></clipPath><clipPath id="clip25"><rect x="1605" y="151" width="2819" height="1059"/></clipPath><clipPath id="clip26"><rect x="1605" y="151" width="2819" height="1059"/></clipPath><clipPath id="clip27"><rect x="1605" y="151" width="2819" height="1059"/></clipPath><clipPath id="clip28"><rect x="1605" y="151" width="2819" height="1059"/></clipPath><clipPath id="clip29"><rect x="1605" y="151" width="2819" height="1059"/></clipPath></defs><g clip-path="url(#clip0)" transform="translate(-1604 -150)"><rect x="1605" y="151" width="2819" height="1059" fill="#FFFFFF"/><g clip-path="url(#clip1)"><path d="M1894.5 708.523 4327.5 708.523M1894.5 540.518 4327.5 540.518M1894.5 372.512 4327.5 372.512M1894.5 204.5 4327.5 204.5" stroke="#D9D9D9" stroke-width="3.4375" stroke-linejoin="round" stroke-miterlimit="10" fill="none"/></g><g clip-path="url(#clip2)"><path d="M1894.5 876.5 4327.5 876.5" stroke="#D9D9D9" stroke-width="3.4375" stroke-linejoin="round" stroke-miterlimit="10" fill="none" fill-rule="evenodd"/></g><g clip-path="url(#clip3)"><path d="M0 0 2.00007 94.9999" stroke="#5B9BD5" stroke-width="1.14583" stroke-linecap="round" stroke-linejoin="round" stroke-miterlimit="10" fill="none" fill-rule="evenodd" transform="matrix(1 0 0 -1 4077.5 771.5)"/></g><g clip-path="url(#clip4)"><path d="M1897.5 242.5 1899.56 360.512 1902.56 406.514 1904.56 439.515 1907.56 468.516 1909.56 482.516 1911.56 497.516 1914.56 503.517 1916.56 515.517 1919.56 523.517 1921.56 522.517 1924.56 530.518 1926.56 535.518 1928.56 557.518 1931.56 546.518 1933.56 564.519 1936.56 558.518 1938.56 550.518 1941.56 559.519 1943.56 574.519 1945.56 567.519 1948.56 571.519 1950.56 572.519 1953.56 599.52 1955.56 582.519 1958.56 587.519 1960.56 602.52 1962.56 605.52 1965.56 602.52 1967.56 592.52 1970.56 611.52 1972.56 602.52 1975.56 640.521 1977.57 612.52 1979.57 625.521 1982.57 619.521 1984.57 630.521 1987.57 624.521 1989.57 651.522 1992.57 646.521 1994.57 644.521 1997.57 629.521 1999.57 654.522 2001.57 651.522 2004.57 650.522 2006.57 657.522 2009.57 619.521 2011.57 662.522 2014.57 646.521 2016.57 669.522 2018.57 669.522 2021.57 681.523 2023.57 656.522 2026.57 640.521 2028.57 670.522 2031.57 670.522 2033.57 629.521 2035.57 658.522 2038.57 631.521 2040.57 658.522 2043.57 686.523 2045.57 643.521 2048.57 652.522 2050.57 697.523 2052.57 674.522 2055.57 662.522 2057.57 672.522 2060.57 682.523 2062.57 664.522 2065.57 676.522 2067.57 677.522 2070.57 688.523 2072.57 688.523 2074.57 681.523 2077.57 696.523 2079.57 695.523 2082.57 638.521 2084.57 687.523 2087.57 700.523 2089.57 670.522 2091.57 621.521 2094.57 703.523 2096.57 698.523 2099.57 670.522 2101.57 696.523 2104.57 670.522 2106.57 690.523 2108.57 705.523 2111.57 630.521 2113.57 679.522 2116.57 691.523 2118.57 691.523 2121.57 698.523 2123.57 672.522 2125.57 712.524 2128.57 711.523 2130.57 718.524 2133.57 717.524 2135.57 693.523 2138.57 698.523 2140.57 708.523 2143.57 700.523 2145.57 627.521 2147.57 702.523 2150.57 686.523 2152.57 676.522 2155.57 690.523 2157.57 722.524 2160.57 713.524 2162.57 693.523 2164.57 705.523 2167.57 715.524 2169.57 724.524 2172.57 687.523 2174.57 710.523 2177.57 695.523 2179.57 634.521 2181.57 674.522 2184.57 658.522 2186.57 688.523 2189.57 683.523 2191.57 679.522 2194.57 700.523 2196.57 676.522 2198.57 622.521 2201.57 719.524 2203.57 698.523 2206.57 701.523 2208.57 681.523 2211.57 727.524 2213.57 719.524 2215.57 720.524 2218.57 711.523 2220.57 612.52 2223.57 686.523 2225.57 710.523 2228.57 702.523 2230.57 661.522 2233.57 717.524 2235.57 724.524 2237.57 715.524 2240.57 714.524 2242.57 710.523 2245.57 729.524 2247.57 645.521 2250.57 706.523 2252.57 671.522 2254.57 701.523 2257.57 730.524 2259.57 710.523 2262.57 716.524 2264.57 679.522 2267.57 706.523 2269.57 704.523 2271.57 676.522 2274.57 643.521 2276.57 728.524 2279.57 690.523 2281.57 730.524 2284.58 709.523 2286.58 711.523 2288.58 734.524 2291.58 711.523 2293.58 735.524 2296.58 733.524 2298.58 726.524 2301.58 638.521 2303.58 643.521 2306.58 673.522 2308.58 596.52 2310.58 735.524 2313.58 731.524 2315.58 735.524 2318.58 731.524 2320.58 739.524 2323.58 736.524 2325.58 732.524 2327.58 733.524 2330.58 727.524 2332.58 707.523 2335.58 631.521 2337.58 733.524 2340.58 728.524 2342.58 730.524 2344.58 702.523 2347.58 735.524 2349.58 698.523 2352.58 712.524 2354.58 705.523 2357.58 734.524 2359.58 625.521 2361.58 734.524 2364.58 726.524 2366.58 643.521 2369.58 679.522 2371.58 685.523 2374.58 645.521 2376.58 694.523 2378.58 714.524 2381.58 733.524 2383.58 739.524 2386.58 726.524 2388.58 735.524 2391.58 700.523 2393.58 724.524 2396.58 664.522 2398.58 728.524 2400.58 733.524 2403.58 733.524 2405.58 727.524 2408.58 738.524 2410.58 732.524 2413.58 703.523 2415.58 702.523 2417.58 669.522 2420.58 694.523 2422.58 699.523 2425.58 738.524 2427.58 702.523 2430.58 720.524 2432.58 733.524 2434.58 648.521 2437.58 736.524 2439.58 730.524 2442.58 714.524 2444.58 708.523 2447.58 732.524 2449.58 694.523 2451.58 720.524 2454.58 707.523 2456.58 686.523 2459.58 730.524 2461.58 709.523 2464.58 703.523 2466.58 671.522 2469.58 717.524 2471.58 716.524 2473.58 739.524 2476.58 737.524 2478.58 722.524 2481.58 738.524 2483.58 740.524 2486.58 724.524 2488.58 724.524 2490.58 676.522 2493.58 724.524 2495.58 709.523 2498.58 629.521 2500.58 707.523 2503.58 699.523 2505.58 700.523 2507.58 724.524 2510.58 739.524 2512.58 730.524 2515.58 736.524 2517.58 731.524 2520.58 744.525 2522.58 729.524 2524.58 719.524 2527.58 720.524 2529.58 618.52 2532.58 713.524 2534.58 670.522 2537.58 681.523 2539.58 724.524 2542.58 709.523 2544.58 693.523 2546.58 733.524 2549.58 742.525 2551.58 718.524 2554.58 741.524 2556.58 743.525 2559.58 737.524 2561.58 718.524 2563.58 723.524 2566.58 735.524 2568.58 712.524 2571.58 733.524 2573.58 713.524 2576.58 658.522 2578.58 742.525 2580.58 719.524 2583.58 736.524 2585.58 662.522 2588.58 720.524 2590.59 708.523 2593.59 738.524 2595.59 722.524 2597.59 712.524 2600.59 721.524 2602.59 664.522 2605.59 735.524 2607.59 721.524 2610.59 647.521 2612.59 734.524 2614.59 705.523 2617.59 738.524 2619.59 736.524 2622.59 720.524 2624.59 709.523 2627.59 652.522 2629.59 712.524 2632.59 718.524 2634.59 716.524 2636.59 744.525 2639.59 738.524 2641.59 738.524 2644.59 732.524 2646.59 738.524 2649.59 727.524 2651.59 707.523 2653.59 692.523 2656.59 693.523 2658.59 719.524 2661.59 709.523 2663.59 732.524 2666.59 736.524 2668.59 721.524 2670.59 617.52 2673.59 608.52 2675.59 617.52 2678.59 741.524 2680.59 749.525 2683.59 752.525 2685.59 748.525 2687.59 745.525 2690.59 722.524 2692.59 743.525 2695.59 737.524 2697.59 745.525 2700.59 742.525 2702.59 741.524 2705.59 748.525 2707.59 712.524 2709.59 717.524 2712.59 680.523 2714.59 739.524 2717.59 647.521 2719.59 708.523 2722.59 728.524 2724.59 735.524 2726.59 727.524 2729.59 721.524 2731.59 720.524 2734.59 721.524 2736.59 714.524 2739.59 727.524 2741.59 734.524 2743.59 708.523 2746.59 718.524 2748.59 741.524 2751.59 743.525 2753.59 720.524 2756.59 731.524 2758.59 705.523 2760.59 739.524 2763.59 726.524 2765.59 719.524 2768.59 744.525 2770.59 742.525 2773.59 730.524 2775.59 700.523 2777.59 718.524 2780.59 662.522 2782.59 716.524 2785.59 725.524 2787.59 742.525 2790.59 751.525 2792.59 736.524 2795.59 741.524 2797.59 719.524 2799.59 732.524 2802.59 740.524 2804.59 712.524 2807.59 725.524 2809.59 707.523 2812.59 711.523 2814.59 692.523 2816.59 634.521 2819.59 724.524 2821.59 747.525 2824.59 674.522 2826.59 742.525 2829.59 736.524 2831.59 731.524 2833.59 743.525 2836.59 723.524 2838.59 745.525 2841.59 736.524 2843.59 751.525 2846.59 685.523 2848.59 718.524 2850.59 739.524 2853.59 751.525 2855.59 731.524 2858.59 727.524 2860.59 741.524 2863.59 743.525 2865.59 736.524 2868.59 671.522 2870.59 738.524 2872.59 738.524 2875.59 737.524 2877.59 743.525 2880.59 732.524 2882.59 725.524 2885.59 649.521 2887.59 734.524 2889.59 727.524 2892.6 750.525 2894.6 750.525 2897.6 746.525 2899.6 727.524 2902.6 729.524 2904.6 751.525 2906.6 737.524 2909.6 741.524 2911.6 716.524 2914.6 675.522 2916.6 738.524 2919.6 742.525 2921.6 749.525 2923.6 725.524 2926.6 751.525 2928.6 747.525 2931.6 740.524 2933.6 723.524 2936.6 734.524 2938.6 737.524 2941.6 685.523 2943.6 694.523 2945.6 738.524 2948.6 680.523 2950.6 732.524 2953.6 710.523 2955.6 741.524 2958.6 747.525 2960.6 747.525 2962.6 740.524 2965.6 685.523 2967.6 733.524 2970.6 747.525 2972.6 736.524 2975.6 731.524 2977.6 750.525 2979.6 749.525 2982.6 747.525 2984.6 726.524 2987.6 707.523 2989.6 721.524 2992.6 719.524 2994.6 684.523 2996.6 706.523 2999.6 748.525 3001.6 732.524 3004.6 750.525 3006.6 753.525 3009.6 745.525 3011.6 729.524 3013.6 718.524 3016.6 705.523 3018.6 638.521 3021.6 692.523 3023.6 711.523 3026.6 745.525 3028.6 739.524 3031.6 749.525 3033.6 746.525 3035.6 750.525 3038.6 746.525 3040.6 732.524 3043.6 735.524 3045.6 749.525 3048.6 738.524 3050.6 715.524 3052.6 725.524 3055.6 671.522 3057.6 752.525 3060.6 754.525 3062.6 744.525 3065.6 737.524 3067.6 718.524 3069.6 662.522 3072.6 738.524 3074.6 750.525 3077.6 735.524 3079.6 702.523 3082.6 731.524 3084.6 739.524 3086.6 705.523 3089.6 700.523 3091.6 721.524 3094.6 704.523 3096.6 688.523 3099.6 677.522 3101.6 749.525 3104.6 734.524 3106.6 724.524 3108.6 755.525 3111.6 759.525 3113.6 757.525 3116.6 757.525 3118.6 726.524 3121.6 746.525 3123.6 709.523 3125.6 739.524 3128.6 732.524 3130.6 759.525 3133.6 705.523 3135.6 743.525 3138.6 740.524 3140.6 719.524 3142.6 721.524 3145.6 724.524 3147.6 734.524 3150.6 725.524 3152.6 754.525 3155.6 747.525 3157.6 721.524 3159.6 723.524 3162.6 729.524 3164.6 703.523 3167.6 698.523 3169.6 739.524 3172.6 746.525 3174.6 749.525 3176.6 738.524 3179.6 753.525 3181.6 744.525 3184.6 736.524 3186.6 723.524 3189.6 708.523 3191.6 698.523 3194.6 735.524 3196.6 738.524 3198.6 746.525 3201.61 741.524 3203.61 754.525 3206.61 750.525 3208.61 759.525 3211.61 754.525 3213.61 754.525 3215.61 751.525 3218.61 707.523 3220.61 725.524 3223.61 728.524 3225.61 639.521 3228.61 728.524 3230.61 750.525 3232.61 737.524 3235.61 746.525 3237.61 751.525 3240.61 749.525 3242.61 752.525 3245.61 745.525 3247.61 737.524 3249.61 716.524 3252.61 739.524 3254.61 735.524 3257.61 755.525 3259.61 743.525 3262.61 745.525 3264.61 750.525 3267.61 738.524 3269.61 752.525 3271.61 723.524 3274.61 751.525 3276.61 742.525 3279.61 751.525 3281.61 740.524 3284.61 751.525 3286.61 745.525 3288.61 713.524 3291.61 747.525 3293.61 757.525 3296.61 739.524 3298.61 712.524 3301.61 749.525 3303.61 692.523 3305.61 735.524 3308.61 756.525 3310.61 757.525 3313.61 756.525 3315.61 758.525 3318.61 753.525 3320.61 754.525 3322.61 749.525 3325.61 743.525 3327.61 746.525 3330.61 686.523 3332.61 700.523 3335.61 729.524 3337.61 762.525 3340.61 762.525 3342.61 761.525 3344.61 760.525 3347.61 762.525 3349.61 761.525 3352.61 742.525 3354.61 763.525 3357.61 762.525 3359.61 758.525 3361.61 756.525 3364.61 735.524 3366.61 763.525 3369.61 761.525 3371.61 758.525 3374.61 737.524 3376.61 760.525 3378.61 749.525 3381.61 712.524 3383.61 734.524 3386.61 730.524 3388.61 657.522 3391.61 759.525 3393.61 765.525 3395.61 769.525 3398.61 769.525 3400.61 768.525 3403.61 763.525 3405.61 758.525 3408.61 764.525 3410.61 760.525 3412.61 767.525 3415.61 687.523 3417.61 729.524 3420.61 741.524 3422.61 718.524 3425.61 736.524 3427.61 752.525 3430.61 755.525 3432.61 744.525 3434.61 765.525 3437.61 762.525 3439.61 759.525 3442.61 742.525 3444.61 703.523 3447.61 737.524 3449.61 749.525 3451.61 758.525 3454.61 758.525 3456.61 753.525 3459.61 738.524 3461.61 763.525 3464.61 761.525 3466.61 754.525 3468.61 716.524 3471.61 707.523 3473.61 739.524 3476.61 720.524 3478.61 756.525 3481.61 740.524 3483.61 731.524 3485.61 712.524 3488.61 687.523 3490.61 749.525 3493.61 755.525 3495.61 770.525 3498.61 765.525 3500.61 757.525 3503.62 756.525 3505.62 765.525 3507.62 769.525 3510.62 756.525 3512.62 746.525 3515.62 754.525 3517.62 692.523 3520.62 708.523 3522.62 648.521 3524.62 724.524 3527.62 756.525 3529.62 731.524 3532.62 765.525 3534.62 750.525 3537.62 754.525 3539.62 760.525 3541.62 768.525 3544.62 768.525 3546.62 767.525 3549.62 730.524 3551.62 761.525 3554.62 747.525 3556.62 734.524 3558.62 766.525 3561.62 761.525 3563.62 732.524 3566.62 766.525 3568.62 750.525 3571.62 751.525 3573.62 697.523 3575.62 737.524 3578.62 754.525 3580.62 774.526 3583.62 773.526 3585.62 773.526 3588.62 750.525 3590.62 721.524 3593.62 774.526 3595.62 778.526 3597.62 767.525 3600.62 770.525 3602.62 746.525 3605.62 699.523 3607.62 743.525 3610.62 709.523 3612.62 766.525 3614.62 725.524 3617.62 763.525 3619.62 773.526 3622.62 766.525 3624.62 724.524 3627.62 750.525 3629.62 739.524 3631.62 764.525 3634.62 776.526 3636.62 776.526 3639.62 773.526 3641.62 770.525 3644.62 738.524 3646.62 762.525 3648.62 757.525 3651.62 726.524 3653.62 761.525 3656.62 769.525 3658.62 774.526 3661.62 769.525 3663.62 776.526 3666.62 741.524 3668.62 734.524 3670.62 755.525 3673.62 749.525 3675.62 742.525 3678.62 711.523 3680.62 720.524 3683.62 733.524 3685.62 755.525 3687.62 742.525 3690.62 776.526 3692.62 774.526 3695.62 762.525 3697.62 692.523 3700.62 754.525 3702.62 771.525 3704.62 775.526 3707.62 775.526 3709.62 766.525 3712.62 762.525 3714.62 753.525 3717.62 774.526 3719.62 738.524 3721.62 699.523 3724.62 770.525 3726.62 765.525 3729.62 764.525 3731.62 742.525 3734.62 773.526 3736.62 777.526 3739.62 758.525 3741.62 767.525 3743.62 773.526 3746.62 763.525 3748.62 767.525 3751.62 738.524 3753.62 697.523 3756.62 751.525 3758.62 773.526 3760.62 768.525 3763.62 775.526 3765.62 775.526 3768.62 769.525 3770.62 771.525 3773.62 778.526 3775.62 724.524 3777.62 724.524 3780.62 778.526 3782.62 762.525 3785.62 696.523 3787.62 742.525 3790.62 759.525 3792.62 780.526 3794.62 775.526 3797.62 778.526 3799.62 721.524 3802.62 725.524 3804.62 742.525 3807.62 757.525 3809.62 743.525 3811.63 771.525 3814.63 770.525 3816.63 775.526 3819.63 774.526 3821.63 763.525 3824.63 775.526 3826.63 776.526 3829.63 709.523 3831.63 741.524 3833.63 766.525 3836.63 771.525 3838.63 736.524 3841.63 765.525 3843.63 756.525 3846.63 728.524 3848.63 715.524 3850.63 760.525 3853.63 773.526 3855.63 775.526 3858.63 781.526 3860.63 773.526 3863.63 766.525 3865.63 772.526 3867.63 723.524 3870.63 717.524 3872.63 764.525 3875.63 769.525 3877.63 767.525 3880.63 774.526 3882.63 773.526 3884.63 757.525 3887.63 726.524 3889.63 756.525 3892.63 743.525 3894.63 769.525 3897.63 767.525 3899.63 776.526 3902.63 779.526 3904.63 768.525 3906.63 731.524 3909.63 770.525 3911.63 760.525 3914.63 765.525 3916.63 714.524 3919.63 753.525 3921.63 775.526 3923.63 762.525 3926.63 749.525 3928.63 751.525 3931.63 777.526 3933.63 772.526 3936.63 781.526 3938.63 751.525 3940.63 756.525 3943.63 769.525 3945.63 778.526 3948.63 769.525 3950.63 770.525 3953.63 757.525 3955.63 750.525 3957.63 672.522 3960.63 761.525 3962.63 767.525 3965.63 755.525 3967.63 772.526 3970.63 775.526 3972.63 778.526 3974.63 783.5 3977.63 753.525 3979.63 773.526 3982.63 775.526 3984.63 777.526 3987.63 767.525 3989.63 775.526 3992.63 769.525 3994.63 753.525 3996.63 759.525 3999.63 745.525 4001.63 754.525 4004.63 761.525 4006.63 763.525 4009.63 739.524 4011.63 777.526 4013.63 771.525 4016.63 770.525 4018.63 769.525 4021.63 726.524 4023.63 767.525 4026.63 731.524 4028.63 758.525 4030.63 753.525 4033.63 753.525 4035.63 761.525 4038.63 759.525 4040.63 775.526 4043.63 766.525 4045.63 774.526 4047.63 774.526 4050.63 752.525 4052.63 752.525 4055.63 701.523 4057.63 767.525 4060.63 770.525 4062.63 775.526 4065.63 763.525 4067.63 767.525 4069.63 777.526 4072.63 775.526 4074.63 764.525 4077.63 771.525M4079.63 676.522 4082.63 767.525 4084.63 779.526 4086.63 779.526 4089.63 773.526 4091.63 768.525 4094.63 773.526 4096.63 773.526 4099.63 773.526 4101.63 769.525 4103.63 770.525 4106.63 766.525 4108.63 762.525 4111.63 776.526 4113.63 764.525 4116.64 749.525 4118.64 775.526 4120.64 782.526 4123.64 754.525 4125.64 759.525 4128.64 773.526 4130.64 753.525 4133.64 748.525 4135.64 746.525 4138.64 781.526 4140.64 777.526 4142.64 776.526 4145.64 770.525 4147.64 738.524 4150.64 707.523 4152.64 768.525 4155.64 778.526 4157.64 768.525 4159.64 778.526 4162.64 776.526 4164.64 764.525 4167.64 772.526 4169.64 776.526 4172.64 777.526 4174.64 770.525 4176.64 751.525 4179.64 762.525 4181.64 774.526 4184.64 740.524 4186.64 778.526 4189.64 774.526 4191.64 781.526 4193.64 779.526 4196.64 770.525 4198.64 739.524 4201.64 723.524 4203.64 775.526 4206.64 780.526 4208.64 759.525 4210.64 782.526 4213.64 765.525 4215.64 782.526 4218.64 777.526 4220.64 749.525 4223.64 780.526 4225.64 773.526 4228.64 738.524 4230.64 763.525 4232.64 777.526 4235.64 759.525 4237.64 770.525 4240.64 740.524 4242.64 763.525 4245.64 772.526 4247.64 781.526 4249.64 775.526 4252.64 752.525 4254.64 712.524 4257.64 753.525 4259.64 774.526 4262.64 779.526 4264.64 780.526 4266.64 768.525 4269.64 773.526 4271.64 766.525 4274.64 775.526 4276.64 775.526 4279.64 779.526 4281.64 779.526 4283.64 759.525 4286.64 768.525 4288.64 777.526 4291.64 779.526 4293.64 777.526 4296.64 769.525 4298.64 778.526 4301.64 769.525 4303.64 755.525 4305.64 761.525 4308.64 782.526 4310.64 771.525 4313.64 756.525 4315.64 762.525 4318.64 750.525 4320.64 741.524 4322.64 766.525 4325.64 771.525 4327.5 768.525" stroke="#5B9BD5" stroke-width="0" stroke-linecap="round" stroke-linejoin="round" stroke-miterlimit="10" fill="none"/></g><g clip-path="url(#clip5)"><path d="M1897.5 281.5 1899.56 370.512 1902.56 407.514 1904.56 444.515 1907.56 464.515 1909.56 486.516 1911.56 488.516 1914.56 502.517 1916.56 502.517 1919.56 520.517 1921.56 523.517 1924.56 527.517 1926.56 538.518 1928.56 541.518 1931.56 548.518 1933.56 554.518 1936.56 564.519 1938.56 558.518 1941.56 566.519 1943.56 582.519 1945.56 584.519 1948.56 585.519 1950.56 590.52 1953.56 597.52 1955.56 591.52 1958.56 610.52 1960.56 610.52 1962.56 624.521 1965.56 632.521 1967.56 611.52 1970.56 626.521 1972.56 613.52 1975.56 651.522 1977.57 622.521 1979.57 620.521 1982.57 638.521 1984.57 629.521 1987.57 658.522 1989.57 660.522 1992.57 629.521 1994.57 632.521 1997.57 662.522 1999.57 657.522 2001.57 665.522 2004.57 646.521 2006.57 653.522 2009.57 664.522 2011.57 647.521 2014.57 638.521 2016.57 660.522 2018.57 649.521 2021.57 662.522 2023.57 667.522 2026.57 676.522 2028.57 664.522 2031.57 637.521 2033.57 681.523 2035.57 675.522 2038.57 643.521 2040.57 654.522 2043.57 593.52 2045.57 635.521 2048.57 680.522 2050.57 671.522 2052.57 688.523 2055.57 680.522 2057.57 664.522 2060.57 686.523 2062.57 622.521 2065.57 691.523 2067.57 646.521 2070.57 696.523 2072.57 674.522 2074.57 679.522 2077.57 691.523 2079.57 655.522 2082.57 669.522 2084.57 672.522 2087.57 685.523 2089.57 669.522 2091.57 659.522 2094.57 597.52 2096.57 643.521 2099.57 646.521 2101.57 678.522 2104.57 677.522 2106.57 694.523 2108.57 655.522 2111.57 561.519 2113.57 621.521 2116.57 699.523 2118.57 691.523 2121.57 683.523 2123.57 695.523 2125.57 691.523 2128.57 697.523 2130.57 703.523 2133.57 702.523 2135.57 664.522 2138.57 683.523 2140.57 678.522 2143.57 681.523 2145.57 655.522 2147.57 636.521 2150.57 702.523 2152.57 689.523 2155.57 706.523 2157.57 707.523 2160.57 707.523 2162.57 683.523 2164.57 699.523 2167.57 679.522 2169.57 670.522 2172.57 708.523 2174.57 696.523 2177.57 702.523 2179.57 683.523 2181.57 708.523 2184.57 684.523 2186.57 712.524 2189.57 609.52 2191.57 696.523 2194.57 680.522 2196.57 709.523 2198.57 697.523 2201.57 716.524 2203.57 711.524 2206.57 694.523 2208.57 706.523 2211.57 648.521 2213.57 698.523 2215.57 593.52 2218.57 658.522 2220.57 707.523 2223.57 711.524 2225.57 718.524 2228.57 720.524 2230.57 713.524 2233.57 696.523 2235.57 690.523 2237.57 680.522 2240.57 592.52 2242.57 704.523 2245.57 715.524 2247.57 681.523 2250.57 716.524 2252.57 711.524 2254.57 682.523 2257.57 712.524 2259.57 697.523 2262.57 721.524 2264.57 704.523 2267.57 719.524 2269.57 710.523 2271.57 703.523 2274.57 714.524 2276.57 720.524 2279.57 720.524 2281.57 714.524 2284.58 682.523 2286.58 636.521 2288.58 681.523 2291.58 718.524 2293.58 713.524 2296.58 718.524 2298.58 726.524 2301.58 693.523 2303.58 718.524 2306.58 709.523 2308.58 695.523 2310.58 649.521 2313.58 703.523 2315.58 608.52 2318.58 693.523 2320.58 682.523 2323.58 707.523 2325.58 704.523 2327.58 705.523 2330.58 712.524 2332.58 715.524 2335.58 731.524 2337.58 714.524 2340.58 724.524 2342.58 719.524 2344.58 712.524 2347.58 704.523 2349.58 640.521 2352.58 658.522 2354.58 703.523 2357.58 721.524 2359.58 696.523 2361.58 662.522 2364.58 712.524 2366.58 669.522 2369.58 697.523 2371.58 682.523 2374.58 697.523 2376.58 666.522 2378.58 721.524 2381.58 739.524 2383.58 708.523 2386.58 614.52 2388.58 668.522 2391.58 677.522 2393.58 694.523 2396.58 654.522 2398.58 671.522 2400.58 660.522 2403.58 712.524 2405.58 713.524 2408.58 739.524 2410.58 724.524 2413.58 741.525 2415.58 729.524 2417.58 737.524 2420.58 733.524 2422.58 731.524 2425.58 683.523 2427.58 715.524 2430.58 725.524 2432.58 741.525 2434.58 711.524 2437.58 737.524 2439.58 727.524 2442.58 686.523 2444.58 730.524 2447.58 733.524 2449.58 707.523 2451.58 670.522 2454.58 716.524 2456.58 697.523 2459.58 734.524 2461.58 701.523 2464.58 726.524 2466.58 720.524 2469.58 725.524 2471.58 710.523 2473.58 735.524 2476.58 746.525 2478.58 714.524 2481.58 735.524 2483.58 677.522 2486.58 697.523 2488.58 720.524 2490.58 735.524 2493.58 720.524 2495.58 749.525 2498.58 707.523 2500.58 725.524 2503.58 730.524 2505.58 752.525 2507.58 753.525 2510.58 642.521 2512.58 718.524 2515.58 656.522 2517.58 705.523 2520.58 683.523 2522.58 755.525 2524.58 741.525 2527.58 731.524 2529.58 752.525 2532.58 752.525 2534.58 704.523 2537.58 738.524 2539.58 745.525 2542.58 705.523 2544.58 709.523 2546.58 707.523 2549.58 733.524 2551.58 740.524 2554.58 735.524 2556.58 753.525 2559.58 740.524 2561.58 738.524 2563.58 753.525 2566.58 761.525 2568.58 680.522 2571.58 717.524 2573.58 742.525 2576.58 749.525 2578.58 757.525 2580.58 741.525 2583.58 723.524 2585.58 717.524 2588.58 761.525 2590.59 710.523 2593.59 706.523 2595.59 666.522 2597.59 718.524 2600.59 726.524 2602.59 752.525 2605.59 760.525 2607.59 747.525 2610.59 754.525 2612.59 735.524 2614.59 724.524 2617.59 745.525 2619.59 751.525 2622.59 761.525 2624.59 704.523 2627.59 707.523 2629.59 659.522 2632.59 651.522 2634.59 705.523 2636.59 748.525 2639.59 727.524 2641.59 724.524 2644.59 753.525 2646.59 766.525 2649.59 764.525 2651.59 683.523 2653.59 742.525 2656.59 700.523 2658.59 715.524 2661.59 691.523 2663.59 726.524 2666.59 738.524 2668.59 724.524 2670.59 744.525 2673.59 748.525 2675.59 757.525 2678.59 766.525 2680.59 756.525 2683.59 736.524 2685.59 736.524 2687.59 740.524 2690.59 762.525 2692.59 703.523 2695.59 711.524 2697.59 637.521 2700.59 685.523 2702.59 686.523 2705.59 758.525 2707.59 767.525 2709.59 760.525 2712.59 765.525 2714.59 769.525 2717.59 768.525 2719.59 770.525 2722.59 768.525 2724.59 770.525 2726.59 755.525 2729.59 758.525 2731.59 763.525 2734.59 758.525 2736.59 760.525 2739.59 696.523 2741.59 731.524 2743.59 630.521 2746.59 675.522 2748.59 701.523 2751.59 768.525 2753.59 752.525 2756.59 774.526 2758.59 766.525 2760.59 765.525 2763.59 763.525 2765.59 768.525 2768.59 765.525 2770.59 719.524 2773.59 727.524 2775.59 687.523 2777.59 746.525 2780.59 680.522 2782.59 722.524 2785.59 761.525 2787.59 766.525 2790.59 768.525 2792.59 753.525 2795.59 762.525 2797.59 771.526 2799.59 760.525 2802.59 754.525 2804.59 714.524 2807.59 762.525 2809.59 714.524 2812.59 727.524 2814.59 722.524 2816.59 706.523 2819.59 686.523 2821.59 732.524 2824.59 733.524 2826.59 758.525 2829.59 745.525 2831.59 768.525 2833.59 768.525 2836.59 771.526 2838.59 762.525 2841.59 765.525 2843.59 766.525 2846.59 740.524 2848.59 768.525 2850.59 769.525 2853.59 741.525 2855.59 705.523 2858.59 715.524 2860.59 700.523 2863.59 741.525 2865.59 752.525 2868.59 770.525 2870.59 763.525 2872.59 759.525 2875.59 730.524 2877.59 734.524 2880.59 721.524 2882.59 760.525 2885.59 763.525 2887.59 755.525 2889.59 769.525 2892.6 774.526 2894.6 748.525 2897.6 693.523 2899.6 698.523 2902.6 714.524 2904.6 759.525 2906.6 761.525 2909.6 771.526 2911.6 761.525 2914.6 770.525 2916.6 736.524 2919.6 703.523 2921.6 775.526 2923.6 747.525 2926.6 776.526 2928.6 760.525 2931.6 722.524 2933.6 736.524 2936.6 774.526 2938.6 769.525 2941.6 736.524 2943.6 764.525 2945.6 743.525 2948.6 731.524 2950.6 777.526 2953.6 757.525 2955.6 728.524 2958.6 752.525 2960.6 739.524 2962.6 740.524 2965.6 761.525 2967.6 650.521 2970.6 708.523 2972.6 771.526 2975.6 775.526 2977.6 776.526 2979.6 768.525 2982.6 760.525 2984.6 778.526 2987.6 763.525 2989.6 773.526 2992.6 763.525 2994.6 758.525 2996.6 785.526 2999.6 720.524 3001.6 705.523 3004.6 730.524 3006.6 734.524 3009.6 714.524 3011.6 748.525 3013.6 772.526 3016.6 732.524 3018.6 753.525 3021.6 742.525 3023.6 777.526 3026.6 765.525 3028.6 777.526 3031.6 767.525 3033.6 775.526 3035.6 769.525 3038.6 728.524 3040.6 764.525 3043.6 771.526 3045.6 729.524 3048.6 755.525 3050.6 741.525 3052.6 758.525 3055.6 730.524 3057.6 774.526 3060.6 778.526 3062.6 730.524 3065.6 720.524 3067.6 698.523 3069.6 735.524 3072.6 766.525 3074.6 753.525 3077.6 758.525 3079.6 773.526 3082.6 774.526 3084.6 780.526 3086.6 768.525 3089.6 764.525 3091.6 764.525 3094.6 766.525 3096.6 770.525 3099.6 748.525 3101.6 767.525 3104.6 740.524 3106.6 782.526 3108.6 762.525 3111.6 767.525 3113.6 753.525 3116.6 773.526 3118.6 774.526 3121.6 772.526 3123.6 767.525 3125.6 752.525 3128.6 707.523 3130.6 720.524 3133.6 767.525 3135.6 769.525 3138.6 778.526 3140.6 772.526 3142.6 779.526 3145.6 772.526 3147.6 770.525 3150.6 775.526 3152.6 766.525 3155.6 775.526 3157.6 762.525 3159.6 767.525 3162.6 775.526 3164.6 724.524 3167.6 760.525 3169.6 714.524 3172.6 705.523 3174.6 757.525 3176.6 774.526 3179.6 771.526 3181.6 780.526 3184.6 783.526 3186.6 785.526 3189.6 776.526 3191.6 759.525 3194.6 775.526 3196.6 738.524 3198.6 751.525 3201.61 781.526 3203.61 782.526 3206.61 769.525 3208.61 775.526 3211.61 774.526 3213.61 784.526 3215.61 771.526 3218.61 771.526 3220.61 776.526 3223.61 758.525 3225.61 686.523 3228.61 770.525 3230.61 760.525 3232.61 783.526 3235.61 783.526 3237.61 787.526 3240.61 772.526 3242.61 782.526 3245.61 779.526 3247.61 780.526 3249.61 775.526 3252.61 731.524 3254.61 782.526 3257.61 769.525 3259.61 766.525 3262.61 741.525 3264.61 694.523 3267.61 718.524 3269.61 737.524 3271.61 776.526 3274.61 768.525 3276.61 785.526 3279.61 790.526 3281.61 781.526 3284.61 784.526 3286.61 784.526 3288.61 758.525 3291.61 764.525 3293.61 781.526 3296.61 778.526 3298.61 776.526 3301.61 766.525 3303.61 750.525 3305.61 757.525 3308.61 759.525 3310.61 774.526 3313.61 782.526 3315.61 783.526 3318.61 778.526 3320.61 785.526 3322.61 770.525 3325.61 786.526 3327.61 769.525 3330.61 775.526 3332.61 766.525 3335.61 763.525 3337.61 740.524 3340.61 733.524 3342.61 754.525 3344.61 776.526 3347.61 784.526 3349.61 754.525 3352.61 764.525 3354.61 775.526 3357.61 780.526 3359.61 778.526 3361.61 761.525 3364.61 727.524 3366.61 774.526 3369.61 787.526 3371.61 786.526 3374.61 789.526 3376.61 793.526 3378.61 725.524 3381.61 734.524 3383.61 775.526 3386.61 782.526 3388.61 779.526 3391.61 788.526 3393.61 755.525 3395.61 750.525 3398.61 716.524 3400.61 736.524 3403.61 777.526 3405.61 781.526 3408.61 790.526 3410.61 789.526 3412.61 784.526 3415.61 785.526 3417.61 787.526 3420.61 788.526 3422.61 784.526 3425.61 782.526 3427.61 785.526 3430.61 792.526 3432.61 789.526 3434.61 791.526 3437.61 768.525 3439.61 743.525 3442.61 761.525 3444.61 775.526 3447.61 791.526 3449.61 790.526 3451.61 787.526 3454.61 784.526 3456.61 787.526 3459.61 783.526 3461.61 790.526 3464.61 791.526 3466.61 783.526 3468.61 783.526 3471.61 749.525 3473.61 772.526 3476.61 783.526 3478.61 790.526 3481.61 786.526 3483.61 785.526 3485.61 760.525 3488.61 742.525 3490.61 766.525 3493.61 776.526 3495.61 753.525 3498.61 772.526 3500.61 777.526 3503.62 788.526 3505.62 792.526 3507.62 789.526 3510.62 795.526 3512.62 754.525 3515.62 769.525 3517.62 779.526 3520.62 782.526 3522.62 758.525 3524.62 775.526 3527.62 792.526 3529.62 788.526 3532.62 767.525 3534.62 761.525 3537.62 792.526 3539.62 795.526 3541.62 793.526 3544.62 771.526 3546.62 794.526 3549.62 792.526 3551.62 787.526 3554.62 758.525 3556.62 788.526 3558.62 773.526 3561.62 789.526 3563.62 792.526 3566.62 801.526 3568.62 764.525 3571.62 768.525 3573.62 789.526 3575.62 787.526 3578.62 780.526 3580.62 757.525 3583.62 740.524 3585.62 736.524 3588.62 728.524 3590.62 784.526 3593.62 781.526 3595.62 779.526 3597.62 791.526 3600.62 788.526 3602.62 793.526 3605.62 786.526 3607.62 789.526 3610.62 784.526 3612.62 794.526 3614.62 785.526 3617.62 780.526 3619.62 796.526 3622.62 765.525 3624.62 787.526 3627.62 796.526 3629.62 767.525 3631.62 715.524 3634.62 744.525 3636.62 786.526 3639.62 789.526 3641.62 793.526 3644.62 792.526 3646.62 781.526 3648.62 794.526 3651.62 793.526 3653.62 790.526 3656.62 774.526 3658.62 777.526 3661.62 768.525 3663.62 789.526 3666.62 797.526 3668.62 780.526 3670.62 800.526 3673.62 795.526 3675.62 762.525 3678.62 754.525 3680.62 791.526 3683.62 793.526 3685.62 793.526 3687.62 794.526 3690.62 781.526 3692.62 783.526 3695.62 770.525 3697.62 774.526 3700.62 775.526 3702.62 762.525 3704.62 781.526 3707.62 788.526 3709.62 787.526 3712.62 793.526 3714.62 797.526 3717.62 793.526 3719.62 792.526 3721.62 795.526 3724.62 796.526 3726.62 753.525 3729.62 751.525 3731.62 775.526 3734.62 781.526 3736.62 776.526 3739.62 797.526 3741.62 799.526 3743.62 798.526 3746.62 788.526 3748.62 750.525 3751.62 786.526 3753.62 796.526 3756.62 791.526 3758.62 794.526 3760.62 798.526 3763.62 798.526 3765.62 797.526 3768.62 772.526 3770.62 763.525 3773.62 756.525 3775.62 784.526 3777.62 779.526 3780.62 790.526 3782.62 754.525 3785.62 770.525 3787.62 774.526 3790.62 788.526 3792.62 803.526 3794.62 796.526 3797.62 799.526 3799.62 793.526 3802.62 790.526 3804.62 779.526 3807.62 782.526 3809.62 797.526 3811.63 785.526 3814.63 769.525 3816.63 778.526 3819.63 777.526 3821.63 800.526 3824.63 791.526 3826.63 777.526 3829.63 768.525 3831.63 777.526 3833.63 786.526 3836.63 792.526 3838.63 769.525 3841.63 781.526 3843.63 783.526 3846.63 783.526 3848.63 787.526 3850.63 781.526 3853.63 794.526 3855.63 801.526 3858.63 794.526 3860.63 799.526 3863.63 803.526 3865.63 792.526 3867.63 798.526 3870.63 785.526 3872.63 765.525 3875.63 774.526 3877.63 789.526 3880.63 781.526 3882.63 800.526 3884.63 796.526 3887.63 795.526 3889.63 774.526 3892.63 782.526 3894.63 788.526 3897.63 780.526 3899.63 794.526 3902.63 784.526 3904.63 797.526 3906.63 781.526 3909.63 789.526 3911.63 789.526 3914.63 798.526 3916.63 794.526 3919.63 796.526 3921.63 795.526 3923.63 796.526 3926.63 789.526 3928.63 797.526 3931.63 791.526 3933.63 794.526 3936.63 743.525 3938.63 765.525 3940.63 784.526 3943.63 799.526 3945.63 803.526 3948.63 802.526 3950.63 803.526 3953.63 799.526 3955.63 800.526 3957.63 804.527 3960.63 799.526 3962.63 800.526 3965.63 801.526 3967.63 792.526 3970.63 795.526 3972.63 770.525 3974.63 764.525 3977.63 758.525 3979.63 762.525 3982.63 792.526 3984.63 801.526 3987.63 799.526 3989.63 797.526 3992.63 802.526 3994.63 798.526 3996.63 802.526 3999.63 804.527 4001.63 800.526 4004.63 779.526 4006.63 795.526 4009.63 797.526 4011.63 785.526 4013.63 788.526 4016.63 786.526 4018.63 768.525 4021.63 795.526 4023.63 797.526 4026.63 801.526 4028.63 797.526 4030.63 798.526 4033.63 797.526 4035.63 794.526 4038.63 799.526 4040.63 799.526 4043.63 772.526 4045.63 789.526 4047.63 785.526 4050.63 785.526 4052.63 787.526 4055.63 772.526 4057.63 793.526 4060.63 795.526 4062.63 799.526 4065.63 801.526 4067.63 781.526 4069.63 791.526 4072.63 795.526 4074.63 748.525 4077.63 767.525 4079.63 800.526 4082.63 798.526 4084.63 796.526 4086.63 803.526 4089.63 796.526 4091.63 799.526 4094.63 805.527 4096.63 805.527 4099.63 803.526 4101.63 802.526 4103.63 793.526 4106.63 789.526 4108.63 803.526 4111.63 791.526 4113.63 779.526 4116.64 800.526 4118.64 776.526 4120.64 779.526 4123.64 795.526 4125.64 798.526 4128.64 806.527 4130.64 782.526 4133.64 790.526 4135.64 769.525 4138.64 776.526 4140.64 756.525 4142.64 780.526 4145.64 776.526 4147.64 792.526 4150.64 796.526 4152.64 803.526 4155.64 784.526 4157.64 734.524 4159.64 751.525 4162.64 781.526 4164.64 799.526 4167.64 804.527 4169.64 807.527 4172.64 803.526 4174.64 773.526 4176.64 790.526 4179.64 790.526 4181.64 808.527 4184.64 804.527 4186.64 805.527 4189.64 797.526 4191.64 784.526 4193.64 759.525 4196.64 771.526 4198.64 795.526 4201.64 794.526 4203.64 796.526 4206.64 797.526 4208.64 804.527 4210.64 800.526 4213.64 790.526 4215.64 762.525 4218.64 772.526 4220.64 789.526 4223.64 799.526 4225.64 799.526 4228.64 791.526 4230.64 802.526 4232.64 807.527 4235.64 805.527 4237.64 806.527 4240.64 808.527 4242.64 805.527 4245.64 802.526 4247.64 779.526 4249.64 783.526 4252.64 796.526 4254.64 783.526 4257.64 800.526 4259.64 805.527 4262.64 797.526 4264.64 809.527 4266.64 798.526 4269.64 802.526 4271.64 805.527 4274.64 810.5 4276.64 792.526 4279.64 768.525 4281.64 784.526 4283.64 800.526 4286.64 791.526 4288.64 806.527 4291.64 796.526 4293.64 803.526 4296.64 805.527 4298.64 797.526 4301.64 799.526 4303.64 746.525 4305.64 755.525 4308.64 804.527 4310.64 802.526 4313.64 804.527 4315.64 809.527 4318.64 807.527 4320.64 807.527 4322.64 792.526 4325.64 805.527 4327.5 807.527" stroke="#ED7D31" stroke-width="1.14583" stroke-linecap="round" stroke-linejoin="round" stroke-miterlimit="10" fill="none"/></g><g clip-path="url(#clip6)"><text fill="#595959" font-family="CMU Serif,CMU Serif_MSFontService,sans-serif" font-weight="500" font-size="46" transform="matrix(1 0 0 1 1827.95 886)">1</text></g><g clip-path="url(#clip7)"><text fill="#595959" font-family="CMU Serif,CMU Serif_MSFontService,sans-serif" font-weight="500" font-size="46" transform="matrix(1 0 0 1 1805.03 718)">10</text></g><g clip-path="url(#clip8)"><text fill="#595959" font-family="CMU Serif,CMU Serif_MSFontService,sans-serif" font-weight="500" font-size="46" transform="matrix(1 0 0 1 1782.11 550)">100</text></g><g clip-path="url(#clip9)"><text fill="#595959" font-family="CMU Serif,CMU Serif_MSFontService,sans-serif" font-weight="500" font-size="46" transform="matrix(1 0 0 1 1759.2 382)">1000</text></g><g clip-path="url(#clip10)"><text fill="#595959" font-family="CMU Serif,CMU Serif_MSFontService,sans-serif" font-weight="500" font-size="46" transform="matrix(1 0 0 1 1736.28 214)">10000</text></g><g clip-path="url(#clip11)"><text fill="#595959" font-family="CMU Serif,CMU Serif_MSFontService,sans-serif" font-weight="500" font-size="46" transform="matrix(1 0 0 1 1883.45 948)">0</text></g><g clip-path="url(#clip12)"><text fill="#595959" font-family="CMU Serif,CMU Serif_MSFontService,sans-serif" font-weight="500" font-size="46" transform="matrix(1 0 0 1 2103.94 948)">100</text></g><g clip-path="url(#clip13)"><text fill="#595959" font-family="CMU Serif,CMU Serif_MSFontService,sans-serif" font-weight="500" font-size="46" transform="matrix(1 0 0 1 2347.2 948)">200</text></g><g clip-path="url(#clip14)"><text fill="#595959" font-family="CMU Serif,CMU Serif_MSFontService,sans-serif" font-weight="500" font-size="46" transform="matrix(1 0 0 1 2590.69 948)">300</text></g><g clip-path="url(#clip15)"><text fill="#595959" font-family="CMU Serif,CMU Serif_MSFontService,sans-serif" font-weight="500" font-size="46" transform="matrix(1 0 0 1 2833.78 948)">400</text></g><g clip-path="url(#clip16)"><text fill="#595959" font-family="CMU Serif,CMU Serif_MSFontService,sans-serif" font-weight="500" font-size="46" transform="matrix(1 0 0 1 3077.08 948)">500</text></g><g clip-path="url(#clip17)"><text fill="#595959" font-family="CMU Serif,CMU Serif_MSFontService,sans-serif" font-weight="500" font-size="46" transform="matrix(1 0 0 1 3320.34 948)">600</text></g><g clip-path="url(#clip18)"><text fill="#595959" font-family="CMU Serif,CMU Serif_MSFontService,sans-serif" font-weight="500" font-size="46" transform="matrix(1 0 0 1 3563.64 948)">700</text></g><g clip-path="url(#clip19)"><text fill="#595959" font-family="CMU Serif,CMU Serif_MSFontService,sans-serif" font-weight="500" font-size="46" transform="matrix(1 0 0 1 3806.94 948)">800</text></g><g clip-path="url(#clip20)"><text fill="#595959" font-family="CMU Serif,CMU Serif_MSFontService,sans-serif" font-weight="500" font-size="46" transform="matrix(1 0 0 1 4050.24 948)">900</text></g><g clip-path="url(#clip21)"><text fill="#595959" font-family="CMU Serif,CMU Serif_MSFontService,sans-serif" font-weight="500" font-size="46" transform="matrix(1 0 0 1 4282.19 948)">1000</text></g><g clip-path="url(#clip22)"><text fill="#595959" font-family="CMU Serif,CMU Serif_MSFontService,sans-serif" font-weight="500" font-size="46" transform="matrix(6.12323e-17 -1 1 6.12323e-17 1705.6 617)">MSE [</text></g><g clip-path="url(#clip23)"><text fill="#595959" font-family="CMU Serif,CMU Serif_MSFontService,sans-serif" font-weight="500" font-size="46" transform="matrix(6.12323e-17 -1 1 6.12323e-17 1705.6 491)">-</text></g><g clip-path="url(#clip24)"><text fill="#595959" font-family="CMU Serif,CMU Serif_MSFontService,sans-serif" font-weight="500" font-size="46" transform="matrix(6.12323e-17 -1 1 6.12323e-17 1705.6 476)">]</text></g><g clip-path="url(#clip25)"><text fill="#595959" font-family="CMU Serif,CMU Serif_MSFontService,sans-serif" font-weight="500" font-size="46" transform="matrix(1 0 0 1 2964.87 1021)">Epoch number</text></g><g clip-path="url(#clip26)"><path d="M2659.5 1139.5 2747.5 1139.5" stroke="#5B9BD5" stroke-width="0" stroke-linecap="round" stroke-linejoin="round" stroke-miterlimit="10" fill="none" fill-rule="evenodd"/></g><g clip-path="url(#clip27)"><text fill="#595959" font-family="CMU Serif,CMU Serif_MSFontService,sans-serif" font-weight="500" font-size="46" transform="matrix(1 0 0 1 2756.85 1149)">Linear-MSE</text></g><g clip-path="url(#clip28)"><path d="M3057.5 1139.5 3145.5 1139.5" stroke="#ED7D31" stroke-width="1.14583" stroke-linecap="round" stroke-linejoin="round" stroke-miterlimit="10" fill="none" fill-rule="evenodd"/></g><g clip-path="url(#clip29)"><text fill="#595959" font-family="CMU Serif,CMU Serif_MSFontService,sans-serif" font-weight="500" font-size="46" transform="matrix(1 0 0 1 3155.05 1149)">ReLU-MSE</text></g><rect x="1605.5" y="151.5" width="2819" height="1059" stroke="#D9D9D9" stroke-width="3.4375" stroke-linejoin="round" stroke-miterlimit="10" fill="none"/></g></svg>