<svg width="2822" height="1062" xmlns="http://www.w3.org/2000/svg" xmlns:xlink="http://www.w3.org/1999/xlink" xml:space="preserve" overflow="hidden"><defs><clipPath id="clip0"><rect x="1604" y="1209" width="2822" height="1062"/></clipPath><clipPath id="clip1"><rect x="1605" y="1209" width="2819" height="1059"/></clipPath><clipPath id="clip2"><rect x="1605" y="1209" width="2819" height="1059"/></clipPath><clipPath id="clip3"><rect x="1871" y="1262" width="2460" height="676"/></clipPath><clipPath id="clip4"><rect x="1871" y="1262" width="2460" height="676"/></clipPath><clipPath id="clip5"><rect x="1605" y="1209" width="2819" height="1059"/></clipPath><clipPath id="clip6"><rect x="1605" y="1209" width="2819" height="1059"/></clipPath><clipPath id="clip7"><rect x="1605" y="1209" width="2819" height="1059"/></clipPath><clipPath id="clip8"><rect x="1605" y="1209" width="2819" height="1059"/></clipPath><clipPath id="clip9"><rect x="1605" y="1209" width="2819" height="1059"/></clipPath><clipPath id="clip10"><rect x="1605" y="1209" width="2819" height="1059"/></clipPath><clipPath id="clip11"><rect x="1605" y="1209" width="2819" height="1059"/></clipPath><clipPath id="clip12"><rect x="1605" y="1209" width="2819" height="1059"/></clipPath><clipPath id="clip13"><rect x="1605" y="1209" width="2819" height="1059"/></clipPath><clipPath id="clip14"><rect x="1605" y="1209" width="2819" height="1059"/></clipPath><clipPath id="clip15"><rect x="1605" y="1209" width="2819" height="1059"/></clipPath><clipPath id="clip16"><rect x="1605" y="1209" width="2819" height="1059"/></clipPath><clipPath id="clip17"><rect x="1605" y="1209" width="2819" height="1059"/></clipPath><clipPath id="clip18"><rect x="1605" y="1209" width="2819" height="1059"/></clipPath><clipPath id="clip19"><rect x="1605" y="1209" width="2819" height="1059"/></clipPath><clipPath id="clip20"><rect x="1605" y="1209" width="2819" height="1059"/></clipPath><clipPath id="clip21"><rect x="1605" y="1209" width="2819" height="1059"/></clipPath><clipPath id="clip22"><rect x="1605" y="1209" width="2819" height="1059"/></clipPath><clipPath id="clip23"><rect x="1605" y="1209" width="2819" height="1059"/></clipPath><clipPath id="clip24"><rect x="1605" y="1209" width="2819" height="1059"/></clipPath><clipPath id="clip25"><rect x="1605" y="1209" width="2819" height="1059"/></clipPath></defs><g clip-path="url(#clip0)" transform="translate(-1604 -1209)"><rect x="1605" y="1210" width="2819" height="1059" fill="#FFFFFF"/><g clip-path="url(#clip1)"><path d="M1871.5 1710.56 4327.5 1710.56M1871.5 1486.55 4327.5 1486.55M1871.5 1262.5 4327.5 1262.5" stroke="#D9D9D9" stroke-width="3.4375" stroke-linejoin="round" stroke-miterlimit="10" fill="none"/></g><g clip-path="url(#clip2)"><path d="M1871.5 1934.5 4327.5 1934.5" stroke="#D9D9D9" stroke-width="3.4375" stroke-linejoin="round" stroke-miterlimit="10" fill="none" fill-rule="evenodd"/></g><g clip-path="url(#clip3)"><path d="M1874.5 1439.5 1876.56 1497.55 1879.56 1515.55 1881.56 1512.55 1884.56 1529.55 1886.56 1538.55 1889.56 1548.55 1891.56 1536.55 1894.56 1568.55 1896.56 1543.55 1898.56 1579.55 1901.56 1581.55 1903.56 1590.55 1906.56 1572.55 1908.56 1563.55 1911.56 1586.55 1913.56 1595.55 1916.56 1579.55 1918.56 1549.55 1921.56 1571.55 1923.56 1585.55 1925.56 1591.55 1928.56 1582.55 1930.56 1578.55 1933.56 1569.55 1935.56 1584.55 1938.56 1577.55 1940.56 1595.55 1943.56 1590.55 1945.56 1592.55 1948.56 1589.55 1950.56 1574.55 1952.56 1568.55 1955.56 1589.55 1957.56 1590.55 1960.56 1595.55 1962.56 1577.55 1965.56 1577.55 1967.56 1574.55 1970.56 1578.55 1972.56 1575.55 1975.57 1587.55 1977.57 1582.55 1979.57 1592.55 1982.57 1595.55 1984.57 1578.55 1987.57 1584.55 1989.57 1604.55 1992.57 1579.55 1994.57 1570.55 1997.57 1562.55 1999.57 1585.55 2002.57 1574.55 2004.57 1577.55 2006.57 1571.55 2009.57 1576.55 2011.57 1596.55 2014.57 1573.55 2016.57 1593.55 2019.57 1575.55 2021.57 1599.55 2024.57 1589.55 2026.57 1602.55 2029.57 1601.55 2031.57 1595.55 2034.57 1593.55 2036.57 1584.55 2038.57 1585.55 2041.57 1592.55 2043.57 1602.55 2046.57 1606.55 2048.57 1574.55 2051.57 1568.55 2053.57 1599.55 2056.57 1585.55 2058.57 1597.55 2061.57 1565.55 2063.57 1590.55 2065.57 1608.55 2068.57 1587.55 2070.57 1587.55 2073.57 1588.55 2075.57 1573.55 2078.57 1579.55 2080.57 1590.55 2083.57 1606.55 2085.57 1553.55 2088.57 1579.55 2090.57 1591.55 2092.57 1602.55 2095.57 1586.55 2097.57 1607.55 2100.57 1601.55 2102.57 1584.55 2105.57 1594.55 2107.57 1596.55 2110.57 1586.55 2112.57 1574.55 2115.57 1591.55 2117.57 1580.55 2119.57 1591.55 2122.57 1582.55 2124.57 1608.55 2127.57 1584.55 2129.57 1589.55 2132.57 1594.55 2134.57 1595.55 2137.57 1594.55 2139.57 1559.55 2142.57 1588.55 2144.57 1588.55 2146.57 1613.55 2149.57 1600.55 2151.57 1603.55 2154.57 1588.55 2156.57 1589.55 2159.57 1596.55 2161.57 1597.55 2164.57 1601.55 2166.57 1596.55 2169.57 1610.55 2171.57 1583.55 2173.57 1594.55 2176.57 1602.55 2178.57 1609.55 2181.57 1602.55 2183.57 1608.55 2186.57 1604.55 2188.57 1585.55 2191.57 1597.55 2193.57 1591.55 2196.57 1597.55 2198.57 1601.55 2201.57 1611.55 2203.57 1601.55 2205.57 1590.55 2208.57 1605.55 2210.57 1596.55 2213.57 1587.55 2215.57 1590.55 2218.57 1594.55 2220.57 1601.55 2223.57 1609.55 2225.57 1603.55 2228.57 1604.55 2230.57 1595.55 2232.57 1598.55 2235.57 1584.55 2237.57 1609.55 2240.57 1600.55 2242.57 1606.55 2245.57 1603.55 2247.57 1605.55 2250.57 1604.55 2252.57 1588.55 2255.57 1599.55 2257.57 1585.55 2259.57 1595.55 2262.57 1613.55 2264.57 1606.55 2267.57 1605.55 2269.57 1591.55 2272.57 1611.55 2274.57 1602.55 2277.57 1606.55 2279.57 1585.55 2282.58 1591.55 2284.58 1601.55 2286.58 1605.55 2289.58 1594.55 2291.58 1604.55 2294.58 1605.55 2296.58 1600.55 2299.58 1577.55 2301.58 1600.55 2304.58 1601.55 2306.58 1608.55 2309.58 1608.55 2311.58 1608.55 2313.58 1594.55 2316.58 1607.55 2318.58 1588.55 2321.58 1598.55 2323.58 1599.55 2326.58 1573.55 2328.58 1610.55 2331.58 1599.55 2333.58 1599.55 2336.58 1611.55 2338.58 1598.55 2340.58 1609.55 2343.58 1604.55 2345.58 1597.55 2348.58 1609.55 2350.58 1612.55 2353.58 1615.55 2355.58 1607.55 2358.58 1603.55 2360.58 1606.55 2363.58 1605.55 2365.58 1619.55 2368.58 1608.55 2370.58 1598.55 2372.58 1615.55 2375.58 1616.55 2377.58 1606.55 2380.58 1617.55 2382.58 1600.55 2385.58 1603.55 2387.58 1602.55 2390.58 1618.55 2392.58 1591.55 2395.58 1596.55 2397.58 1601.55 2399.58 1612.55 2402.58 1604.55 2404.58 1588.55 2407.58 1606.55 2409.58 1614.55 2412.58 1608.55 2414.58 1606.55 2417.58 1583.55 2419.58 1606.55 2422.58 1596.55 2424.58 1609.55 2426.58 1583.55 2429.58 1602.55 2431.58 1599.55 2434.58 1613.55 2436.58 1601.55 2439.58 1614.55 2441.58 1609.55 2444.58 1610.55 2446.58 1594.55 2449.58 1608.55 2451.58 1597.55 2453.58 1608.55 2456.58 1594.55 2458.58 1587.55 2461.58 1612.55 2463.58 1615.55 2466.58 1590.55 2468.58 1610.55 2471.58 1608.55 2473.58 1604.55 2476.58 1595.55 2478.58 1601.55 2480.58 1586.55 2483.58 1614.55 2485.58 1610.55 2488.58 1604.55 2490.58 1615.55 2493.58 1572.55 2495.58 1607.55 2498.58 1605.55 2500.58 1598.55 2503.58 1607.55 2505.58 1624.55 2507.58 1602.55 2510.58 1620.55 2512.58 1600.55 2515.58 1602.55 2517.58 1594.55 2520.58 1620.55 2522.58 1607.55 2525.58 1602.55 2527.58 1612.55 2530.58 1613.55 2532.58 1598.55 2535.58 1604.55 2537.58 1591.55 2539.58 1586.55 2542.58 1617.55 2544.58 1617.55 2547.58 1608.55 2549.58 1595.55 2552.58 1599.55 2554.58 1598.55 2557.58 1613.55 2559.58 1613.55 2562.58 1617.55 2564.58 1616.55 2566.58 1608.55 2569.58 1609.55 2571.58 1597.55 2574.58 1602.55 2576.58 1578.55 2579.58 1607.55 2581.58 1621.55 2584.58 1610.55 2586.58 1608.55 2589.59 1596.55 2591.59 1614.55 2593.59 1606.55 2596.59 1608.55 2598.59 1602.55 2601.59 1610.55 2603.59 1614.55 2606.59 1610.55 2608.59 1609.55 2611.59 1612.55 2613.59 1603.55 2616.59 1592.55 2618.59 1612.55 2620.59 1598.55 2623.59 1607.55 2625.59 1612.55 2628.59 1616.55 2630.59 1608.55 2633.59 1622.55 2635.59 1610.55 2638.59 1617.55 2640.59 1601.55 2643.59 1611.55 2645.59 1618.55 2647.59 1607.55 2650.59 1614.55 2652.59 1608.55 2655.59 1618.55 2657.59 1621.55 2660.59 1598.55 2662.59 1618.55 2665.59 1593.55 2667.59 1604.55 2670.59 1619.55 2672.59 1606.55 2674.59 1614.55 2677.59 1615.55 2679.59 1621.55 2682.59 1607.55 2684.59 1613.55 2687.59 1611.55 2689.59 1620.55 2692.59 1613.55 2694.59 1619.55 2697.59 1608.55 2699.59 1616.55 2702.59 1613.55 2704.59 1615.55 2706.59 1605.55 2709.59 1617.55 2711.59 1608.55 2714.59 1617.55 2716.59 1599.55 2719.59 1612.55 2721.59 1632.55 2724.59 1612.55 2726.59 1624.55 2729.59 1619.55 2731.59 1620.55 2733.59 1611.55 2736.59 1615.55 2738.59 1602.55 2741.59 1607.55 2743.59 1618.55 2746.59 1625.55 2748.59 1609.55 2751.59 1621.55 2753.59 1613.55 2756.59 1613.55 2758.59 1606.55 2760.59 1611.55 2763.59 1622.55 2765.59 1619.55 2768.59 1619.55 2770.59 1618.55 2773.59 1615.55 2775.59 1594.55 2778.59 1609.55 2780.59 1629.55 2783.59 1612.55 2785.59 1618.55 2787.59 1617.55 2790.59 1613.55 2792.59 1615.55 2795.59 1621.55 2797.59 1607.55 2800.59 1613.55 2802.59 1621.55 2805.59 1621.55 2807.59 1622.55 2810.59 1627.55 2812.59 1620.55 2814.59 1621.55 2817.59 1617.55 2819.59 1623.55 2822.59 1624.55 2824.59 1602.55 2827.59 1615.55 2829.59 1617.55 2832.59 1626.55 2834.59 1614.55 2837.59 1624.55 2839.59 1618.55 2841.59 1612.55 2844.59 1621.55 2846.59 1623.55 2849.59 1609.55 2851.59 1623.55 2854.59 1609.55 2856.59 1606.55 2859.59 1620.55 2861.59 1621.55 2864.59 1596.55 2866.59 1609.55 2869.59 1617.55 2871.59 1626.55 2873.59 1623.55 2876.59 1611.55 2878.59 1597.55 2881.59 1623.55 2883.59 1618.55 2886.59 1610.55 2888.59 1629.55 2891.6 1618.55 2893.6 1619.55 2896.6 1630.55 2898.6 1611.55 2900.6 1612.55 2903.6 1623.55 2905.6 1614.55 2908.6 1615.55 2910.6 1615.55 2913.6 1618.55 2915.6 1609.55 2918.6 1622.55 2920.6 1614.55 2923.6 1624.55 2925.6 1606.55 2927.6 1630.55 2930.6 1617.55 2932.6 1612.55 2935.6 1623.55 2937.6 1622.55 2940.6 1610.55 2942.6 1615.55 2945.6 1619.55 2947.6 1628.55 2950.6 1620.55 2952.6 1618.55 2954.6 1610.55 2957.6 1616.55 2959.6 1625.55 2962.6 1616.55 2964.6 1624.55 2967.6 1612.55 2969.6 1623.55 2972.6 1618.55 2974.6 1613.55 2977.6 1616.55 2979.6 1621.55 2981.6 1618.55 2984.6 1619.55 2986.6 1629.55 2989.6 1614.55 2991.6 1626.55 2994.6 1614.55 2996.6 1610.55 2999.6 1620.55 3001.6 1622.55 3004.6 1614.55 3006.6 1623.55 3008.6 1617.55 3011.6 1636.55 3013.6 1622.55 3016.6 1627.55 3018.6 1627.55 3021.6 1609.55 3023.6 1604.55 3026.6 1629.55 3028.6 1615.55 3031.6 1628.55 3033.6 1623.55 3035.6 1628.55 3038.6 1614.55 3040.6 1610.55 3043.6 1623.55 3045.6 1622.55 3048.6 1619.55 3050.6 1612.55 3053.6 1617.55 3055.6 1625.55 3058.6 1625.55 3060.6 1622.55 3063.6 1621.55 3065.6 1625.55 3067.6 1618.55 3070.6 1625.55 3072.6 1615.55 3075.6 1628.55 3077.6 1617.55 3080.6 1623.55 3082.6 1623.55 3085.6 1627.55 3087.6 1625.55 3090.6 1620.55 3092.6 1609.55 3094.6 1620.55 3097.6 1626.55 3099.6 1630.55 3102.6 1624.55 3104.6 1622.55 3107.6 1617.55 3109.6 1612.55 3112.6 1622.55 3114.6 1628.55 3117.6 1611.55 3119.6 1628.55 3121.6 1617.55 3124.6 1627.55 3126.6 1632.55 3129.6 1616.55 3131.6 1616.55 3134.6 1624.55 3136.6 1627.55 3139.6 1633.55 3141.6 1620.55 3144.6 1617.55 3146.6 1620.55 3148.6 1630.55 3151.6 1629.55 3153.6 1626.55 3156.6 1632.55 3158.6 1609.55 3161.6 1610.55 3163.6 1623.55 3166.6 1623.55 3168.6 1609.55 3171.6 1619.55 3173.6 1615.55 3175.6 1619.55 3178.6 1629.55 3180.6 1622.55 3183.6 1622.55 3185.6 1623.55 3188.6 1635.55 3190.6 1619.55 3193.6 1621.55 3195.6 1618.55 3198.6 1617.55 3200.61 1625.55 3202.61 1623.55 3205.61 1618.55 3207.61 1623.55 3210.61 1623.55 3212.61 1617.55 3215.61 1629.55 3217.61 1624.55 3220.61 1629.55 3222.61 1624.55 3225.61 1626.55 3227.61 1624.55 3230.61 1620.55 3232.61 1619.55 3234.61 1618.55 3237.61 1627.55 3239.61 1624.55 3242.61 1631.55 3244.61 1626.55 3247.61 1622.55 3249.61 1610.55 3252.61 1618.55 3254.61 1630.55 3257.61 1624.55 3259.61 1625.55 3261.61 1627.55 3264.61 1622.55 3266.61 1629.55 3269.61 1626.55 3271.61 1628.55 3274.61 1623.55 3276.61 1622.55 3279.61 1622.55 3281.61 1625.55 3284.61 1634.55 3286.61 1624.55 3288.61 1617.55 3291.61 1625.55 3293.61 1617.55 3296.61 1621.55 3298.61 1611.55 3301.61 1627.55 3303.61 1626.55 3306.61 1626.55 3308.61 1634.55 3311.61 1622.55 3313.61 1627.55 3315.61 1622.55 3318.61 1628.55 3320.61 1627.55 3323.61 1628.55 3325.61 1613.55 3328.61 1627.55 3330.61 1623.55 3333.61 1617.55 3335.61 1626.55 3338.61 1621.55 3340.61 1628.55 3342.61 1617.55 3345.61 1619.55 3347.61 1629.55 3350.61 1629.55 3352.61 1626.55 3355.61 1625.55 3357.61 1629.55 3360.61 1627.55 3362.61 1618.55 3365.61 1625.55 3367.61 1627.55 3369.61 1634.55 3372.61 1633.55 3374.61 1627.55 3377.61 1628.55 3379.61 1617.55 3382.61 1619.55 3384.61 1626.55 3387.61 1631.55 3389.61 1623.55 3392.61 1628.55 3394.61 1617.55 3397.61 1621.55 3399.61 1619.55 3401.61 1628.55 3404.61 1620.55 3406.61 1626.55 3409.61 1625.55 3411.61 1637.55 3414.61 1627.55 3416.61 1637.55 3419.61 1624.55 3421.61 1634.55 3424.61 1627.55 3426.61 1617.55 3428.61 1627.55 3431.61 1636.55 3433.61 1625.55 3436.61 1626.55 3438.61 1635.55 3441.61 1626.55 3443.61 1634.55 3446.61 1626.55 3448.61 1620.55 3451.61 1625.55 3453.61 1633.55 3455.61 1633.55 3458.61 1636.55 3460.61 1621.55 3463.61 1627.55 3465.61 1629.55 3468.61 1632.55 3470.61 1635.55 3473.61 1627.55 3475.61 1636.55 3478.61 1628.55 3480.61 1628.55 3482.61 1624.55 3485.61 1633.55 3487.61 1625.55 3490.61 1616.55 3492.61 1632.55 3495.61 1624.55 3497.61 1624.55 3500.62 1626.55 3502.62 1625.55 3505.62 1635.55 3507.62 1637.55 3509.62 1630.55 3512.62 1631.55 3514.62 1629.55 3517.62 1627.55 3519.62 1615.55 3522.62 1624.55 3524.62 1624.55 3527.62 1636.55 3529.62 1620.55 3532.62 1618.55 3534.62 1608.55 3536.62 1623.55 3539.62 1623.55 3541.62 1632.55 3544.62 1632.55 3546.62 1627.55 3549.62 1632.55 3551.62 1628.55 3554.62 1627.55 3556.62 1629.55 3559.62 1624.55 3561.62 1624.55 3564.62 1632.55 3566.62 1624.55 3568.62 1639.55 3571.62 1615.55 3573.62 1624.55 3576.62 1632.55 3578.62 1628.55 3581.62 1633.55 3583.62 1629.55 3586.62 1625.55 3588.62 1619.55 3591.62 1634.55 3593.62 1622.55 3595.62 1620.55 3598.62 1620.55 3600.62 1635.55 3603.62 1623.55 3605.62 1622.55 3608.62 1631.55 3610.62 1633.55 3613.62 1638.55 3615.62 1631.55 3618.62 1634.55 3620.62 1631.55 3622.62 1630.55 3625.62 1624.55 3627.62 1631.55 3630.62 1639.55 3632.62 1633.55 3635.62 1632.55 3637.62 1629.55 3640.62 1632.55 3642.62 1638.55 3645.62 1634.55 3647.62 1633.55 3649.62 1636.55 3652.62 1621.55 3654.62 1633.55 3657.62 1626.55 3659.62 1626.55 3662.62 1627.55 3664.62 1632.55 3667.62 1634.55 3669.62 1628.55 3672.62 1639.55 3674.62 1626.55 3676.62 1632.55 3679.62 1629.55 3681.62 1630.55 3684.62 1638.55 3686.62 1634.55 3689.62 1627.55 3691.62 1638.55 3694.62 1620.55 3696.62 1631.55 3699.62 1631.55 3701.62 1634.55 3703.62 1633.55 3706.62 1628.55 3708.62 1630.55 3711.62 1623.55 3713.62 1630.55 3716.62 1629.55 3718.62 1627.55 3721.62 1627.55 3723.62 1629.55 3726.62 1634.55 3728.62 1633.55 3731.62 1636.55 3733.62 1631.55 3735.62 1630.55 3738.62 1624.55 3740.62 1633.55 3743.62 1631.55 3745.62 1631.55 3748.62 1629.55 3750.62 1636.55 3753.62 1631.55 3755.62 1624.55 3758.62 1633.55 3760.62 1619.55 3762.62 1638.55 3765.62 1633.55 3767.62 1617.55 3770.62 1625.55 3772.62 1639.55 3775.62 1638.55 3777.62 1633.55 3780.62 1622.55 3782.62 1628.55 3785.62 1628.55 3787.62 1635.55 3789.62 1636.55 3792.62 1627.55 3794.62 1624.55 3797.62 1633.55 3799.62 1628.55 3802.62 1633.55 3804.62 1632.55 3807.62 1634.55 3809.63 1628.55 3812.63 1634.55 3814.63 1631.55 3816.63 1639.55 3819.63 1637.55 3821.63 1637.55 3824.63 1640.55 3826.63 1624.55 3829.63 1623.55 3831.63 1627.55 3834.63 1633.55 3836.63 1638.55 3839.63 1629.55 3841.63 1623.55 3843.63 1634.55 3846.63 1628.55 3848.63 1635.55 3851.63 1634.55 3853.63 1637.55 3856.63 1635.55 3858.63 1632.55 3861.63 1632.55 3863.63 1631.55 3866.63 1637.55 3868.63 1629.55 3870.63 1633.55 3873.63 1631.55 3875.63 1628.55 3878.63 1631.55 3880.63 1635.55 3883.63 1640.55 3885.63 1634.55 3888.63 1631.55 3890.63 1639.55 3893.63 1633.55 3895.63 1633.55 3898.63 1631.55 3900.63 1637.55 3902.63 1632.55 3905.63 1621.55 3907.63 1634.55 3910.63 1633.55 3912.63 1619.55 3915.63 1633.55 3917.63 1633.55 3920.63 1634.55 3922.63 1642.55 3925.63 1634.55 3927.63 1631.55 3929.63 1636.55 3932.63 1626.55 3934.63 1628.55 3937.63 1625.55 3939.63 1635.55 3942.63 1636.55 3944.63 1634.55 3947.63 1630.55 3949.63 1633.55 3952.63 1635.55 3954.63 1632.55 3956.63 1628.55 3959.63 1633.55 3961.63 1631.55 3964.63 1638.55 3966.63 1639.55 3969.63 1641.55 3971.63 1630.55 3974.63 1637.55 3976.63 1634.55 3979.63 1638.55 3981.63 1637.55 3983.63 1633.55 3986.63 1635.55 3988.63 1632.55 3991.63 1643.55 3993.63 1632.55 3996.63 1630.55 3998.63 1623.55 4001.63 1640.55 4003.63 1638.55 4006.63 1635.55 4008.63 1635.55 4010.63 1633.55 4013.63 1636.55 4015.63 1632.55 4018.63 1633.55 4020.63 1632.55 4023.63 1611.55 4025.63 1635.55 4028.63 1636.55 4030.63 1633.55 4033.63 1636.55 4035.63 1622.55 4037.63 1629.55 4040.63 1632.55 4042.63 1639.55 4045.63 1632.55 4047.63 1631.55 4050.63 1635.55 4052.63 1633.55 4055.63 1642.55 4057.63 1636.55 4060.63 1635.55 4062.63 1638.55 4064.63 1637.55 4067.63 1636.55 4069.63 1638.55 4072.63 1634.55 4074.63 1635.55 4077.63 1631.55 4079.63 1628.55 4082.63 1634.55 4084.63 1640.55 4087.63 1629.55 4089.63 1624.55 4092.63 1633.55 4094.63 1634.55 4096.63 1624.55 4099.63 1634.55 4101.63 1630.55 4104.63 1627.55 4106.63 1633.55 4109.63 1634.55 4111.63 1629.55 4114.64 1634.55 4116.64 1634.55 4119.64 1635.55 4121.64 1636.55 4123.64 1635.55 4126.64 1633.55 4128.64 1633.55 4131.64 1630.55 4133.64 1635.55 4136.64 1638.55 4138.64 1638.55 4141.64 1636.55 4143.64 1640.55 4146.64 1640.55 4148.64 1630.55 4150.64 1634.55 4153.64 1639.55 4155.64 1634.55 4158.64 1622.55 4160.64 1644.55 4163.64 1629.55 4165.64 1638.55 4168.64 1630.55 4170.64 1632.55 4173.64 1630.55 4175.64 1639.55 4177.64 1638.55 4180.64 1635.55 4182.64 1637.55 4185.64 1638.55 4187.64 1637.55 4190.64 1638.55 4192.64 1640.55 4195.64 1635.55 4197.64 1636.55 4200.64 1625.55 4202.64 1631.55 4204.64 1632.55 4207.64 1640.55 4209.64 1637.55 4212.64 1637.55 4214.64 1639.55 4217.64 1644.5 4219.64 1633.55 4222.64 1640.55 4224.64 1635.55 4227.64 1632.55 4229.64 1637.55 4231.64 1636.55 4234.64 1638.55 4236.64 1636.55 4239.64 1633.55 4241.64 1634.55 4244.64 1637.55 4246.64 1631.55 4249.64 1638.55 4251.64 1636.55 4254.64 1642.55 4256.64 1638.55 4259.64 1637.55 4261.64 1636.55 4263.64 1636.55 4266.64 1630.55 4268.64 1637.55 4271.64 1633.55 4273.64 1630.55 4276.64 1638.55 4278.64 1635.55 4281.64 1638.55 4283.64 1636.55 4286.64 1637.55 4288.64 1640.55 4290.64 1636.55 4293.64 1631.55 4295.64 1635.55 4298.64 1637.55 4300.64 1637.55 4303.64 1636.55 4305.64 1633.55 4308.64 1635.55 4310.64 1639.55 4313.64 1633.55 4315.64 1635.55 4317.64 1639.55 4320.64 1635.55 4322.64 1629.55 4325.64 1641.55 4327.5 1632.55" stroke="#70AD47" stroke-width="1.14583" stroke-linecap="round" stroke-linejoin="round" stroke-miterlimit="10" fill="none"/></g><g clip-path="url(#clip4)"><path d="M1874.5 1446.5 1876.56 1521.55 1879.56 1541.55 1881.56 1558.55 1884.56 1571.55 1886.56 1592.55 1889.56 1625.55 1891.56 1621.55 1894.56 1620.55 1896.56 1619.55 1898.56 1636.55 1901.56 1628.55 1903.56 1649.55 1906.56 1644.55 1908.56 1636.55 1911.56 1633.55 1913.56 1647.55 1916.56 1657.55 1918.56 1636.55 1921.56 1653.55 1923.56 1661.55 1925.56 1639.55 1928.56 1660.55 1930.56 1656.55 1933.56 1655.55 1935.56 1633.55 1938.56 1650.55 1940.56 1646.55 1943.56 1651.55 1945.56 1646.55 1948.56 1645.55 1950.56 1669.55 1952.56 1658.55 1955.56 1674.56 1957.56 1655.55 1960.56 1644.55 1962.56 1653.55 1965.56 1651.55 1967.56 1655.55 1970.56 1635.55 1972.56 1661.55 1975.57 1666.55 1977.57 1660.55 1979.57 1640.55 1982.57 1671.56 1984.57 1676.56 1987.57 1648.55 1989.57 1680.56 1992.57 1657.55 1994.57 1639.55 1997.57 1666.55 1999.57 1671.56 2002.57 1688.56 2004.57 1643.55 2006.57 1660.55 2009.57 1664.55 2011.57 1680.56 2014.57 1660.55 2016.57 1641.55 2019.57 1669.55 2021.57 1654.55 2024.57 1664.55 2026.57 1647.55 2029.57 1660.55 2031.57 1655.55 2034.57 1653.55 2036.57 1651.55 2038.57 1664.55 2041.57 1658.55 2043.57 1660.55 2046.57 1677.56 2048.57 1677.56 2051.57 1631.55 2053.57 1665.55 2056.57 1652.55 2058.57 1674.56 2061.57 1668.55 2063.57 1668.55 2065.57 1679.56 2068.57 1662.55 2070.57 1666.55 2073.57 1651.55 2075.57 1630.55 2078.57 1669.55 2080.57 1676.56 2083.57 1669.55 2085.57 1654.55 2088.57 1661.55 2090.57 1655.55 2092.57 1688.56 2095.57 1670.55 2097.57 1674.56 2100.57 1679.56 2102.57 1650.55 2105.57 1672.56 2107.57 1650.55 2110.57 1650.55 2112.57 1677.56 2115.57 1673.56 2117.57 1679.56 2119.57 1673.56 2122.57 1677.56 2124.57 1684.56 2127.57 1653.55 2129.57 1648.55 2132.57 1688.56 2134.57 1686.56 2137.57 1686.56 2139.57 1679.56 2142.57 1683.56 2144.57 1702.56 2146.57 1688.56 2149.57 1666.55 2151.57 1679.56 2154.57 1688.56 2156.57 1669.55 2159.57 1684.56 2161.57 1669.55 2164.57 1675.56 2166.57 1673.56 2169.57 1678.56 2171.57 1671.56 2173.57 1661.55 2176.57 1670.55 2178.57 1687.56 2181.57 1686.56 2183.57 1660.55 2186.57 1674.56 2188.57 1677.56 2191.57 1658.55 2193.57 1674.56 2196.57 1686.56 2198.57 1684.56 2201.57 1661.55 2203.57 1692.56 2205.57 1655.55 2208.57 1703.56 2210.57 1660.55 2213.57 1683.56 2215.57 1683.56 2218.57 1687.56 2220.57 1676.56 2223.57 1681.56 2225.57 1690.56 2228.57 1671.56 2230.57 1696.56 2232.57 1687.56 2235.57 1668.55 2237.57 1678.56 2240.57 1679.56 2242.57 1685.56 2245.57 1668.55 2247.57 1695.56 2250.57 1700.56 2252.57 1675.56 2255.57 1692.56 2257.57 1694.56 2259.57 1693.56 2262.57 1677.56 2264.57 1680.56 2267.57 1679.56 2269.57 1689.56 2272.57 1692.56 2274.57 1679.56 2277.57 1695.56 2279.57 1688.56 2282.58 1706.56 2284.58 1672.56 2286.58 1665.55 2289.58 1710.56 2291.58 1688.56 2294.58 1692.56 2296.58 1679.56 2299.58 1679.56 2301.58 1678.56 2304.58 1684.56 2306.58 1712.56 2309.58 1674.56 2311.58 1680.56 2313.58 1697.56 2316.58 1677.56 2318.58 1699.56 2321.58 1679.56 2323.58 1701.56 2326.58 1670.55 2328.58 1695.56 2331.58 1698.56 2333.58 1683.56 2336.58 1689.56 2338.58 1667.55 2340.58 1700.56 2343.58 1661.55 2345.58 1676.56 2348.58 1657.55 2350.58 1674.56 2353.58 1673.56 2355.58 1665.55 2358.58 1681.56 2360.58 1702.56 2363.58 1698.56 2365.58 1688.56 2368.58 1696.56 2370.58 1706.56 2372.58 1691.56 2375.58 1674.56 2377.58 1709.56 2380.58 1678.56 2382.58 1687.56 2385.58 1706.56 2387.58 1694.56 2390.58 1687.56 2392.58 1691.56 2395.58 1696.56 2397.58 1686.56 2399.58 1695.56 2402.58 1666.55 2404.58 1700.56 2407.58 1692.56 2409.58 1681.56 2412.58 1689.56 2414.58 1708.56 2417.58 1701.56 2419.58 1675.56 2422.58 1682.56 2424.58 1698.56 2426.58 1702.56 2429.58 1691.56 2431.58 1681.56 2434.58 1709.56 2436.58 1694.56 2439.58 1695.56 2441.58 1720.56 2444.58 1696.56 2446.58 1697.56 2449.58 1701.56 2451.58 1694.56 2453.58 1711.56 2456.58 1716.56 2458.58 1690.56 2461.58 1702.56 2463.58 1693.56 2466.58 1697.56 2468.58 1687.56 2471.58 1696.56 2473.58 1707.56 2476.58 1688.56 2478.58 1700.56 2480.58 1713.56 2483.58 1693.56 2485.58 1691.56 2488.58 1692.56 2490.58 1708.56 2493.58 1692.56 2495.58 1709.56 2498.58 1715.56 2500.58 1699.56 2503.58 1701.56 2505.58 1683.56 2507.58 1703.56 2510.58 1696.56 2512.58 1704.56 2515.58 1713.56 2517.58 1706.56 2520.58 1701.56 2522.58 1719.56 2525.58 1700.56 2527.58 1721.56 2530.58 1711.56 2532.58 1708.56 2535.58 1710.56 2537.58 1704.56 2539.58 1692.56 2542.58 1693.56 2544.58 1701.56 2547.58 1706.56 2549.58 1682.56 2552.58 1703.56 2554.58 1718.56 2557.58 1723.56 2559.58 1694.56 2562.58 1695.56 2564.58 1698.56 2566.58 1725.56 2569.58 1704.56 2571.58 1700.56 2574.58 1709.56 2576.58 1706.56 2579.58 1699.56 2581.58 1702.56 2584.58 1710.56 2586.58 1698.56 2589.59 1707.56 2591.59 1721.56 2593.59 1677.56 2596.59 1719.56 2598.59 1698.56 2601.59 1721.56 2603.59 1689.56 2606.59 1706.56 2608.59 1714.56 2611.59 1714.56 2613.59 1689.56 2616.59 1716.56 2618.59 1698.56 2620.59 1680.56 2623.59 1722.56 2625.59 1718.56 2628.59 1734.56 2630.59 1717.56 2633.59 1721.56 2635.59 1713.56 2638.59 1721.56 2640.59 1699.56 2643.59 1687.56 2645.59 1697.56 2647.59 1699.56 2650.59 1697.56 2652.59 1707.56 2655.59 1718.56 2657.59 1690.56 2660.59 1731.56 2662.59 1701.56 2665.59 1710.56 2667.59 1711.56 2670.59 1706.56 2672.59 1722.56 2674.59 1712.56 2677.59 1705.56 2679.59 1701.56 2682.59 1685.56 2684.59 1697.56 2687.59 1711.56 2689.59 1720.56 2692.59 1709.56 2694.59 1702.56 2697.59 1713.56 2699.59 1718.56 2702.59 1714.56 2704.59 1713.56 2706.59 1703.56 2709.59 1714.56 2711.59 1694.56 2714.59 1718.56 2716.59 1706.56 2719.59 1708.56 2721.59 1712.56 2724.59 1699.56 2726.59 1700.56 2729.59 1721.56 2731.59 1715.56 2733.59 1711.56 2736.59 1710.56 2738.59 1705.56 2741.59 1706.56 2743.59 1708.56 2746.59 1715.56 2748.59 1725.56 2751.59 1710.56 2753.59 1730.56 2756.59 1732.56 2758.59 1714.56 2760.59 1717.56 2763.59 1715.56 2765.59 1696.56 2768.59 1714.56 2770.59 1715.56 2773.59 1697.56 2775.59 1722.56 2778.59 1725.56 2780.59 1731.56 2783.59 1701.56 2785.59 1713.56 2787.59 1714.56 2790.59 1714.56 2792.59 1737.56 2795.59 1726.56 2797.59 1700.56 2800.59 1721.56 2802.59 1714.56 2805.59 1711.56 2807.59 1717.56 2810.59 1716.56 2812.59 1710.56 2814.59 1712.56 2817.59 1711.56 2819.59 1716.56 2822.59 1745.56 2824.59 1707.56 2827.59 1721.56 2829.59 1715.56 2832.59 1725.56 2834.59 1701.56 2837.59 1699.56 2839.59 1731.56 2841.59 1730.56 2844.59 1711.56 2846.59 1719.56 2849.59 1717.56 2851.59 1722.56 2854.59 1701.56 2856.59 1728.56 2859.59 1706.56 2861.59 1728.56 2864.59 1734.56 2866.59 1711.56 2869.59 1714.56 2871.59 1729.56 2873.59 1718.56 2876.59 1725.56 2878.59 1698.56 2881.59 1706.56 2883.59 1707.56 2886.59 1725.56 2888.59 1712.56 2891.6 1723.56 2893.6 1731.56 2896.6 1738.56 2898.6 1736.56 2900.6 1736.56 2903.6 1730.56 2905.6 1720.56 2908.6 1717.56 2910.6 1707.56 2913.6 1715.56 2915.6 1719.56 2918.6 1738.56 2920.6 1726.56 2923.6 1728.56 2925.6 1723.56 2927.6 1715.56 2930.6 1722.56 2932.6 1729.56 2935.6 1703.56 2937.6 1713.56 2940.6 1721.56 2942.6 1721.56 2945.6 1739.56 2947.6 1729.56 2950.6 1715.56 2952.6 1732.56 2954.6 1721.56 2957.6 1722.56 2959.6 1716.56 2962.6 1726.56 2964.6 1723.56 2967.6 1725.56 2969.6 1705.56 2972.6 1728.56 2974.6 1737.56 2977.6 1709.56 2979.6 1733.56 2981.6 1742.56 2984.6 1735.56 2986.6 1711.56 2989.6 1725.56 2991.6 1733.56 2994.6 1715.56 2996.6 1716.56 2999.6 1739.56 3001.6 1697.56 3004.6 1730.56 3006.6 1723.56 3008.6 1723.56 3011.6 1722.56 3013.6 1728.56 3016.6 1723.56 3018.6 1736.56 3021.6 1734.56 3023.6 1718.56 3026.6 1721.56 3028.6 1713.56 3031.6 1729.56 3033.6 1726.56 3035.6 1727.56 3038.6 1706.56 3040.6 1733.56 3043.6 1718.56 3045.6 1730.56 3048.6 1730.56 3050.6 1729.56 3053.6 1725.56 3055.6 1729.56 3058.6 1714.56 3060.6 1727.56 3063.6 1745.56 3065.6 1730.56 3067.6 1731.56 3070.6 1709.56 3072.6 1706.56 3075.6 1736.56 3077.6 1735.56 3080.6 1732.56 3082.6 1720.56 3085.6 1730.56 3087.6 1719.56 3090.6 1725.56 3092.6 1739.56 3094.6 1730.56 3097.6 1735.56 3099.6 1714.56 3102.6 1705.56 3104.6 1732.56 3107.6 1720.56 3109.6 1739.56 3112.6 1729.56 3114.6 1707.56 3117.6 1718.56 3119.6 1726.56 3121.6 1749.56 3124.6 1737.56 3126.6 1729.56 3129.6 1743.56 3131.6 1723.56 3134.6 1716.56 3136.6 1736.56 3139.6 1713.56 3141.6 1729.56 3144.6 1712.56 3146.6 1726.56 3148.6 1725.56 3151.6 1727.56 3153.6 1730.56 3156.6 1712.56 3158.6 1737.56 3161.6 1735.56 3163.6 1699.56 3166.6 1734.56 3168.6 1733.56 3171.6 1732.56 3173.6 1712.56 3175.6 1719.56 3178.6 1735.56 3180.6 1729.56 3183.6 1730.56 3185.6 1725.56 3188.6 1745.56 3190.6 1738.56 3193.6 1731.56 3195.6 1744.56 3198.6 1738.56 3200.61 1733.56 3202.61 1739.56 3205.61 1749.56 3207.61 1737.56 3210.61 1729.56 3212.61 1727.56 3215.61 1739.56 3217.61 1740.56 3220.61 1744.56 3222.61 1727.56 3225.61 1725.56 3227.61 1748.56 3230.61 1738.56 3232.61 1737.56 3234.61 1715.56 3237.61 1698.56 3239.61 1741.56 3242.61 1741.56 3244.61 1707.56 3247.61 1726.56 3249.61 1728.56 3252.61 1747.56 3254.61 1732.56 3257.61 1736.56 3259.61 1736.56 3261.61 1737.56 3264.61 1738.56 3266.61 1737.56 3269.61 1728.56 3271.61 1743.56 3274.61 1732.56 3276.61 1728.56 3279.61 1736.56 3281.61 1725.56 3284.61 1711.56 3286.61 1736.56 3288.61 1740.56 3291.61 1729.56 3293.61 1720.56 3296.61 1731.56 3298.61 1736.56 3301.61 1751.56 3303.61 1732.56 3306.61 1740.56 3308.61 1734.56 3311.61 1725.56 3313.61 1729.56 3315.61 1747.56 3318.61 1726.56 3320.61 1735.56 3323.61 1731.56 3325.61 1737.56 3328.61 1724.56 3330.61 1754.56 3333.61 1730.56 3335.61 1743.56 3338.61 1737.56 3340.61 1741.56 3342.61 1734.56 3345.61 1740.56 3347.61 1727.56 3350.61 1732.56 3352.61 1740.56 3355.61 1728.56 3357.61 1746.56 3360.61 1722.56 3362.61 1750.56 3365.61 1750.56 3367.61 1736.56 3369.61 1701.56 3372.61 1730.56 3374.61 1746.56 3377.61 1733.56 3379.61 1717.56 3382.61 1732.56 3384.61 1733.56 3387.61 1728.56 3389.61 1706.56 3392.61 1735.56 3394.61 1732.56 3397.61 1731.56 3399.61 1730.56 3401.61 1748.56 3404.61 1736.56 3406.61 1743.56 3409.61 1733.56 3411.61 1742.56 3414.61 1731.56 3416.61 1729.56 3419.61 1747.56 3421.61 1741.56 3424.61 1741.56 3426.61 1725.56 3428.61 1729.56 3431.61 1735.56 3433.61 1754.56 3436.61 1746.56 3438.61 1735.56 3441.61 1744.56 3443.61 1749.56 3446.61 1755.56 3448.61 1749.56 3451.61 1745.56 3453.61 1730.56 3455.61 1737.56 3458.61 1748.56 3460.61 1748.56 3463.61 1735.56 3465.61 1727.56 3468.61 1724.56 3470.61 1738.56 3473.61 1730.56 3475.61 1726.56 3478.61 1739.56 3480.61 1744.56 3482.61 1740.56 3485.61 1701.56 3487.61 1742.56 3490.61 1750.56 3492.61 1754.56 3495.61 1734.56 3497.61 1721.56 3500.62 1738.56 3502.62 1752.56 3505.62 1753.56 3507.62 1741.56 3509.62 1741.56 3512.62 1749.56 3514.62 1753.56 3517.62 1749.56 3519.62 1741.56 3522.62 1755.56 3524.62 1755.56 3527.62 1743.56 3529.62 1737.56 3532.62 1752.56 3534.62 1756.56 3536.62 1749.56 3539.62 1756.56 3541.62 1756.56 3544.62 1725.56 3546.62 1743.56 3549.62 1734.56 3551.62 1741.56 3554.62 1751.56 3556.62 1733.56 3559.62 1762.56 3561.62 1746.56 3564.62 1722.56 3566.62 1722.56 3568.62 1736.56 3571.62 1751.56 3573.62 1736.56 3576.62 1740.56 3578.62 1744.56 3581.62 1746.56 3583.62 1756.56 3586.62 1729.56 3588.62 1732.56 3591.62 1733.56 3593.62 1745.56 3595.62 1752.56 3598.62 1734.56 3600.62 1724.56 3603.62 1751.56 3605.62 1753.56 3608.62 1739.56 3610.62 1757.56 3613.62 1723.56 3615.62 1720.56 3618.62 1745.56 3620.62 1746.56 3622.62 1747.56 3625.62 1756.56 3627.62 1737.56 3630.62 1741.56 3632.62 1738.56 3635.62 1737.56 3637.62 1700.56 3640.62 1741.56 3642.62 1728.56 3645.62 1742.56 3647.62 1747.56 3649.62 1732.56 3652.62 1736.56 3654.62 1755.56 3657.62 1737.56 3659.62 1743.56 3662.62 1738.56 3664.62 1747.56 3667.62 1744.56 3669.62 1735.56 3672.62 1732.56 3674.62 1736.56 3676.62 1736.56 3679.62 1757.56 3681.62 1751.56 3684.62 1735.56 3686.62 1734.56 3689.62 1749.56 3691.62 1728.56 3694.62 1755.56 3696.62 1753.56 3699.62 1739.56 3701.62 1767.56 3703.62 1772.56 3706.62 1743.56 3708.62 1758.56 3711.62 1760.56 3713.62 1758.56 3716.62 1747.56 3718.62 1751.56 3721.62 1745.56 3723.62 1747.56 3726.62 1735.56 3728.62 1752.56 3731.62 1753.56 3733.62 1727.56 3735.62 1752.56 3738.62 1761.56 3740.62 1734.56 3743.62 1743.56 3745.62 1753.56 3748.62 1746.56 3750.62 1744.56 3753.62 1745.56 3755.62 1725.56 3758.62 1744.56 3760.62 1748.56 3762.62 1755.56 3765.62 1744.56 3767.62 1741.56 3770.62 1751.56 3772.62 1741.56 3775.62 1749.56 3777.62 1735.56 3780.62 1748.56 3782.62 1752.56 3785.62 1747.56 3787.62 1725.56 3789.62 1752.56 3792.62 1746.56 3794.62 1769.56 3797.62 1747.56 3799.62 1734.56 3802.62 1759.56 3804.62 1746.56 3807.62 1756.56 3809.63 1743.56 3812.63 1727.56 3814.63 1744.56 3816.63 1762.56 3819.63 1747.56 3821.63 1741.56 3824.63 1747.56 3826.63 1758.56 3829.63 1730.56 3831.63 1768.56 3834.63 1733.56 3836.63 1742.56 3839.63 1749.56 3841.63 1761.56 3843.63 1745.56 3846.63 1755.56 3848.63 1761.56 3851.63 1763.56 3853.63 1746.56 3856.63 1751.56 3858.63 1762.56 3861.63 1750.56 3863.63 1767.56 3866.63 1762.56 3868.63 1744.56 3870.63 1727.56 3873.63 1747.56 3875.63 1752.56 3878.63 1749.56 3880.63 1751.56 3883.63 1741.56 3885.63 1752.56 3888.63 1732.56 3890.63 1751.56 3893.63 1752.56 3895.63 1762.56 3898.63 1749.56 3900.63 1746.56 3902.63 1747.56 3905.63 1751.56 3907.63 1756.56 3910.63 1751.56 3912.63 1753.56 3915.63 1757.56 3917.63 1745.56 3920.63 1768.56 3922.63 1764.56 3925.63 1735.56 3927.63 1765.56 3929.63 1761.56 3932.63 1754.56 3934.63 1752.56 3937.63 1737.56 3939.63 1724.56 3942.63 1758.56 3944.63 1745.56 3947.63 1748.56 3949.63 1746.56 3952.63 1747.56 3954.63 1749.56 3956.63 1739.56 3959.63 1760.56 3961.63 1748.56 3964.63 1759.56 3966.63 1747.56 3969.63 1759.56 3971.63 1724.56 3974.63 1752.56 3976.63 1762.56 3979.63 1756.56 3981.63 1759.56 3983.63 1767.56 3986.63 1745.56 3988.63 1765.56 3991.63 1763.56 3993.63 1744.56 3996.63 1760.56 3998.63 1746.56 4001.63 1738.56 4003.63 1759.56 4006.63 1750.56 4008.63 1750.56 4010.63 1763.56 4013.63 1764.56 4015.63 1741.56 4018.63 1748.56 4020.63 1751.56 4023.63 1756.56 4025.63 1761.56 4028.63 1754.56 4030.63 1754.56 4033.63 1737.56 4035.63 1755.56 4037.63 1755.56 4040.63 1747.56 4042.63 1747.56 4045.63 1747.56 4047.63 1757.56 4050.63 1758.56 4052.63 1752.56 4055.63 1748.56 4057.63 1757.56 4060.63 1759.56 4062.63 1751.56 4064.63 1741.56 4067.63 1724.56 4069.63 1749.56 4072.63 1752.56 4074.63 1743.56 4077.63 1757.56 4079.63 1747.56 4082.63 1750.56 4084.63 1735.56 4087.63 1758.56 4089.63 1758.56 4092.63 1754.56 4094.63 1748.56 4096.63 1754.56 4099.63 1758.56 4101.63 1746.56 4104.63 1767.56 4106.63 1749.56 4109.63 1749.56 4111.63 1754.56 4114.64 1757.56 4116.64 1754.56 4119.64 1756.56 4121.64 1759.56 4123.64 1752.56 4126.64 1751.56 4128.64 1754.56 4131.64 1765.56 4133.64 1740.56 4136.64 1749.56 4138.64 1752.56 4141.64 1764.56 4143.64 1760.56 4146.64 1748.56 4148.64 1753.56 4150.64 1744.56 4153.64 1754.56 4155.64 1764.56 4158.64 1770.56 4160.64 1759.56 4163.64 1756.56 4165.64 1763.56 4168.64 1755.56 4170.64 1742.56 4173.64 1746.56 4175.64 1756.56 4177.64 1753.56 4180.64 1751.56 4182.64 1761.56 4185.64 1768.56 4187.64 1740.56 4190.64 1762.56 4192.64 1753.56 4195.64 1734.56 4197.64 1756.56 4200.64 1748.56 4202.64 1763.56 4204.64 1747.56 4207.64 1765.56 4209.64 1772.56 4212.64 1757.56 4214.64 1747.56 4217.64 1732.56 4219.64 1748.56 4222.64 1761.56 4224.64 1754.56 4227.64 1746.56 4229.64 1731.56 4231.64 1740.56 4234.64 1731.56 4236.64 1754.56 4239.64 1754.56 4241.64 1754.56 4244.64 1758.56 4246.64 1755.56 4249.64 1743.56 4251.64 1765.56 4254.64 1759.56 4256.64 1741.56 4259.64 1769.56 4261.64 1773.5 4263.64 1771.56 4266.64 1765.56 4268.64 1748.56 4271.64 1751.56 4273.64 1765.56 4276.64 1718.56 4278.64 1753.56 4281.64 1763.56 4283.64 1758.56 4286.64 1742.56 4288.64 1758.56 4290.64 1759.56 4293.64 1770.56 4295.64 1761.56 4298.64 1767.56 4300.64 1764.56 4303.64 1769.56 4305.64 1758.56 4308.64 1761.56 4310.64 1747.56 4313.64 1759.56 4315.64 1754.56 4317.64 1743.56 4320.64 1737.56 4322.64 1762.56 4325.64 1763.56 4327.5 1768.56" stroke="#FFC000" stroke-width="1.14583" stroke-linecap="round" stroke-linejoin="round" stroke-miterlimit="10" fill="none"/></g><g clip-path="url(#clip5)"><text fill="#595959" font-family="CMU Serif,CMU Serif_MSFontService,sans-serif" font-weight="500" font-size="46" transform="matrix(1 0 0 1 1805.03 1944)">1</text></g><g clip-path="url(#clip6)"><text fill="#595959" font-family="CMU Serif,CMU Serif_MSFontService,sans-serif" font-weight="500" font-size="46" transform="matrix(1 0 0 1 1782.11 1720)">10</text></g><g clip-path="url(#clip7)"><text fill="#595959" font-family="CMU Serif,CMU Serif_MSFontService,sans-serif" font-weight="500" font-size="46" transform="matrix(1 0 0 1 1759.2 1496)">100</text></g><g clip-path="url(#clip8)"><text fill="#595959" font-family="CMU Serif,CMU Serif_MSFontService,sans-serif" font-weight="500" font-size="46" transform="matrix(1 0 0 1 1736.28 1272)">1000</text></g><g clip-path="url(#clip9)"><text fill="#595959" font-family="CMU Serif,CMU Serif_MSFontService,sans-serif" font-weight="500" font-size="46" transform="matrix(1 0 0 1 1860.53 2007)">0</text></g><g clip-path="url(#clip10)"><text fill="#595959" font-family="CMU Serif,CMU Serif_MSFontService,sans-serif" font-weight="500" font-size="46" transform="matrix(1 0 0 1 2083.31 2007)">100</text></g><g clip-path="url(#clip11)"><text fill="#595959" font-family="CMU Serif,CMU Serif_MSFontService,sans-serif" font-weight="500" font-size="46" transform="matrix(1 0 0 1 2328.87 2007)">200</text></g><g clip-path="url(#clip12)"><text fill="#595959" font-family="CMU Serif,CMU Serif_MSFontService,sans-serif" font-weight="500" font-size="46" transform="matrix(1 0 0 1 2574.64 2007)">300</text></g><g clip-path="url(#clip13)"><text fill="#595959" font-family="CMU Serif,CMU Serif_MSFontService,sans-serif" font-weight="500" font-size="46" transform="matrix(1 0 0 1 2820.03 2007)">400</text></g><g clip-path="url(#clip14)"><text fill="#595959" font-family="CMU Serif,CMU Serif_MSFontService,sans-serif" font-weight="500" font-size="46" transform="matrix(1 0 0 1 3065.62 2007)">500</text></g><g clip-path="url(#clip15)"><text fill="#595959" font-family="CMU Serif,CMU Serif_MSFontService,sans-serif" font-weight="500" font-size="46" transform="matrix(1 0 0 1 3311.17 2007)">600</text></g><g clip-path="url(#clip16)"><text fill="#595959" font-family="CMU Serif,CMU Serif_MSFontService,sans-serif" font-weight="500" font-size="46" transform="matrix(1 0 0 1 3556.76 2007)">700</text></g><g clip-path="url(#clip17)"><text fill="#595959" font-family="CMU Serif,CMU Serif_MSFontService,sans-serif" font-weight="500" font-size="46" transform="matrix(1 0 0 1 3802.35 2007)">800</text></g><g clip-path="url(#clip18)"><text fill="#595959" font-family="CMU Serif,CMU Serif_MSFontService,sans-serif" font-weight="500" font-size="46" transform="matrix(1 0 0 1 4047.95 2007)">900</text></g><g clip-path="url(#clip19)"><text fill="#595959" font-family="CMU Serif,CMU Serif_MSFontService,sans-serif" font-weight="500" font-size="46" transform="matrix(1 0 0 1 4282.19 2007)">1000</text></g><g clip-path="url(#clip20)"><text fill="#595959" font-family="CMU Serif,CMU Serif_MSFontService,sans-serif" font-weight="500" font-size="46" transform="matrix(6.12323e-17 -1 1 6.12323e-17 1705.6 1708)">MAPE [%]</text></g><g clip-path="url(#clip21)"><text fill="#595959" font-family="CMU Serif,CMU Serif_MSFontService,sans-serif" font-weight="500" font-size="46" transform="matrix(1 0 0 1 2953.41 2080)">Epoch number</text></g><g clip-path="url(#clip22)"><path d="M2616.5 2197.5 2704.5 2197.5" stroke="#70AD47" stroke-width="1.14583" stroke-linecap="round" stroke-linejoin="round" stroke-miterlimit="10" fill="none" fill-rule="evenodd"/></g><g clip-path="url(#clip23)"><text fill="#595959" font-family="CMU Serif,CMU Serif_MSFontService,sans-serif" font-weight="500" font-size="46" transform="matrix(1 0 0 1 2714.15 2207)">Linear-MAPE</text></g><g clip-path="url(#clip24)"><path d="M3060.5 2197.5 3148.5 2197.5" stroke="#FFC000" stroke-width="1.14583" stroke-linecap="round" stroke-linejoin="round" stroke-miterlimit="10" fill="none" fill-rule="evenodd"/></g><g clip-path="url(#clip25)"><text fill="#595959" font-family="CMU Serif,CMU Serif_MSFontService,sans-serif" font-weight="500" font-size="46" transform="matrix(1 0 0 1 3157.72 2207)">ReLU-MAPE</text></g><rect x="1605.5" y="1210.5" width="2819" height="1059" stroke="#D9D9D9" stroke-width="3.4375" stroke-linejoin="round" stroke-miterlimit="10" fill="none"/></g></svg>